<svg width="63" height="68" viewBox="0 0 63 68" fill="none" xmlns="http://www.w3.org/2000/svg">
<path d="M43.675 5.02895C42.3972 4.55654 41.1022 4.14423 39.8588 3.61169C28.0587 -1.48179 17.9652 3.34544 11.8079 10.8783C0.556614 24.6556 2.70059 47.0738 16.2673 58.6007C27.7157 68.3238 41.634 66.7262 50.6642 54.641C60.2775 41.7742 59.2397 22.9549 48.2458 10.6636C47.4139 9.73591 46.5992 8.79107 45.5358 7.58856C47.8084 6.06825 49.4721 6.62654 51.0672 8.06096C54.7461 11.3765 57.4303 15.3705 59.274 19.9572C62.8758 28.9503 63.2874 38.0292 59.9258 47.1769C52.6794 66.941 29.2936 73.5633 12.7597 60.559C-2.65927 48.4223 -4.31437 22.3021 9.64678 8.52482C18.454 -0.159007 28.9591 -1.88549 40.5191 2.00549C41.4538 2.32329 42.3114 2.873 43.1947 3.33682C43.5549 3.52579 43.8979 3.74915 44.2495 3.96388C44.0522 4.32463 43.8636 4.6768 43.6664 5.03755L43.675 5.02895Z" fill="#EE4B4A"/>
</svg>
