<svg width="75" height="73" viewBox="0 0 75 73" fill="none" xmlns="http://www.w3.org/2000/svg">
<path d="M52.6851 3.62186C51.1844 3.30406 49.6922 2.97768 48.1915 2.67706C39.8131 0.976367 31.9749 2.6341 24.7285 6.903C11.5649 14.6506 3.83824 26.1603 3.88111 41.561C3.93257 62.2527 22.6189 75.4632 42.0084 69.2874C57.153 64.4688 71.4229 48.527 69.6392 28.4451C68.9531 20.749 65.6086 14.2039 59.64 9.15341C58.2336 7.96808 56.7414 6.87722 55.0434 5.54587C57.1959 3.75929 58.9025 4.84157 60.5318 5.89806C67.3495 10.313 71.5172 16.6089 73.2581 24.4854C75.8479 36.2012 72.8121 46.7662 65.5314 55.8795C54.9491 69.1414 41.0565 74.8963 24.1882 71.4434C6.30802 67.7843 -1.20424 51.6191 0.579491 37.2234C2.87776 18.6103 17.6021 4.21451 35.3795 1.4058C41.2709 0.478149 47.1795 0.572638 52.6765 3.61327L52.6851 3.62186Z" fill="#EE4B4A"/>
</svg>
