<svg width="69" height="69" viewBox="0 0 69 69" fill="none" xmlns="http://www.w3.org/2000/svg">
<path d="M38.8012 0.870164C36.5887 1.06772 34.3505 1.09349 32.1723 1.4886C13.5202 4.88998 0.93119 22.6441 3.66682 41.6008C5.51916 54.4419 15.6384 64.9724 28.2275 66.8621C36.9746 68.1763 44.5898 65.2216 51.2188 59.69C62.41 50.3448 66.8951 35.511 62.6673 22.2061C59.7601 13.0499 53.7572 6.73669 44.8556 3.1807C43.8094 2.75982 42.7632 2.35612 41.4597 1.84076C43.3549 -0.0317135 45.233 0.887347 46.828 1.4113C53.0968 3.48992 58.2508 7.18333 62.0927 12.629C75.8652 32.1612 65.7116 60.6692 42.3859 67.3088C29.2994 71.0279 17.4222 68.6401 7.95464 58.2642C2.43193 52.2087 0.022173 44.8562 0.0907781 36.6448C0.219413 22.4036 6.54824 11.7357 18.6742 4.53781C24.8572 0.870154 31.6234 -0.478364 38.8184 0.870164H38.8012Z" fill="#EE4B4A"/>
</svg>
