<svg width="65" height="63" viewBox="0 0 65 63" fill="none" xmlns="http://www.w3.org/2000/svg">
<path d="M41.0294 3.54076C39.4601 3.25731 37.8907 3.02539 36.33 2.69041C25.336 0.354106 14.2562 5.21568 8.32188 14.7499C-2.50916 32.1519 8.33904 54.5013 26.871 59.5862C32.5824 61.1495 38.1651 60.7458 43.6021 58.315C57.8377 51.9503 63.9006 34.7287 56.9801 20.2298C54.7247 15.5057 51.5432 11.5203 47.3068 8.4195C46.0719 7.51762 44.8542 6.59857 43.3449 5.46478C45.7375 3.69537 47.6069 4.59725 49.3907 5.73963C57.1173 10.6957 61.9454 17.7561 63.7978 26.6976C68.0513 47.3035 51.7833 65.5816 28.1745 62.0943C13.9733 59.9899 3.40804 50.0349 0.715288 36.2404C-2.95509 17.4555 9.85696 3.13706 25.5161 1.10997C30.5757 0.448592 35.4638 0.809346 40.3091 2.25236C40.6435 2.35543 40.9179 2.64747 41.218 2.84502C41.158 3.07694 41.098 3.30885 41.0466 3.54076H41.0294Z" fill="#EE4B4A"/>
</svg>
