<svg width="70" height="71" viewBox="0 0 70 71" fill="none" xmlns="http://www.w3.org/2000/svg">
<path d="M38.2253 2.08965C40.4207 -0.00614804 42.4702 0.835624 44.2711 1.27368C55.7024 4.0824 63.3691 11.16 67.2624 22.2574C71.979 35.674 67.5797 51.9251 56.7658 61.3905C45.6432 71.1308 29.8983 73.4671 17.2064 66.7846C4.59161 60.145 -0.733949 48.9789 0.080737 35.1844C1.04121 18.9935 11.5636 7.09725 24.7701 2.74245C28.1231 1.63443 31.5277 0.818431 35.1209 1.60865C24.8816 2.76821 16.7089 7.55248 10.6974 15.8068C1.52145 28.3988 1.06697 45.3714 10.8346 57.6627C18.8786 67.7896 31.6649 71.1824 43.5336 66.1318C63.249 57.7572 70.7699 31.6112 58.3866 14.4755C54.2961 8.81512 48.8419 5.12169 42.1357 3.24062C40.9523 2.90564 39.7775 2.55348 38.1995 2.08965H38.2253Z" fill="#EE4B4A"/>
</svg>
