<svg width="67" height="76" viewBox="0 0 67 76" fill="none" xmlns="http://www.w3.org/2000/svg">
<path d="M43.1555 4.62643C42.1179 4.34298 41.003 4.19696 40.0511 3.74173C24.0147 -3.9801 9.88202 5.44242 5.35408 20.1302C0.869018 34.6977 4.0763 48.0713 13.0636 60.148C16.9741 65.3961 21.948 69.3987 28.0624 71.881C38.0616 75.9352 48.198 73.2467 54.9042 64.7519C60.3926 57.7945 62.4164 49.7635 62.0648 41.071C61.5674 28.7969 56.8422 18.378 47.9836 9.85734C47.066 8.97264 46.1999 8.0364 45.3337 7.10875C45.2565 7.03145 45.308 6.83389 45.2909 6.64493C47.5034 5.43383 49.047 6.76518 50.582 8.07935C58.8318 15.1913 63.4026 24.3476 65.3579 34.9296C66.6614 41.9643 66.224 48.8702 63.9 55.6386C57.7341 73.5989 41.5176 78.3144 27.1962 73.6075C18.9894 70.9104 12.7634 65.5077 8.19262 58.3356C0.0457544 45.5718 -2.46691 31.8718 3.21017 17.4761C10.9368 -2.09903 31.8957 -3.39602 43.1641 4.61784L43.1555 4.62643Z" fill="#EE4B4A"/>
</svg>
