<svg width="67" height="69" viewBox="0 0 67 69" fill="none" xmlns="http://www.w3.org/2000/svg">
<path d="M34.0744 1.98226C32.6766 1.98226 31.2701 1.99085 29.8723 1.98226C18.4238 1.89637 9.19639 8.5617 5.60319 19.4788C3.08195 27.149 3.62219 34.7163 6.53791 42.1289C10.4827 52.1527 17.2146 59.6511 27.1795 63.9544C41.4923 70.1301 56.028 63.3446 60.556 48.4077C63.7204 37.9803 61.4907 28.3 55.8908 19.2984C52.1947 13.3632 47.1436 8.76787 40.8577 5.5984C40.0001 5.16893 39.2026 4.61923 38.0877 3.94926C40.3946 1.99948 42.3498 2.98722 44.2022 3.91487C54.5616 9.1286 61.4735 17.3315 64.9724 28.3688C67.3821 35.9703 67.3821 43.5633 64.4493 51.0704C59.7241 63.1642 47.3752 69.9412 33.4998 68.043C12.3008 65.1483 -3.1011 44.3449 0.766517 23.3096C3.5536 8.11507 15.0021 1.58717 25.4816 1.02886C28.3115 0.88284 31.15 1.00312 33.9886 1.00312C34.0143 1.32951 34.0487 1.64732 34.0744 1.97372V1.98226Z" fill="#EE4B4A"/>
</svg>
