<svg width="68" height="76" viewBox="0 0 68 76" fill="none" xmlns="http://www.w3.org/2000/svg">
<path d="M38.8252 0.942892C34.7346 1.28647 30.8498 1.1834 27.1623 2.00798C19.8473 3.65713 14.4532 8.33833 10.3026 14.411C-0.554165 30.2841 1.50399 52.5305 14.942 65.6035C26.3905 76.7439 41.578 76.5206 52.5891 65.0538C68.2911 48.7082 65.95 19.8309 47.7868 6.5002C45.7457 5.00565 43.4217 3.88904 41.2007 2.58346C43.3531 1.37236 43.3617 1.35518 45.5828 2.30001C52.8464 5.39217 58.2919 10.5372 61.7822 17.5547C69.4917 33.0671 69.0544 48.3733 58.8065 62.4942C46.6548 79.2434 22.8831 79.4324 9.51364 63.628C-3.0068 48.8199 -3.23834 21.2481 13.3555 7.3076C19.7958 1.89631 27.2223 -0.44858 35.575 0.126906C36.6127 0.195621 37.6332 0.633684 38.8338 0.95149L38.8252 0.942892Z" fill="#EE4B4A"/>
</svg>
