<svg width="157" height="27" viewBox="0 0 157 27" fill="none" xmlns="http://www.w3.org/2000/svg">
<path d="M7.29009 21.1203C3.39037 21.1203 1.00003 19.3729 0.713867 16.3219L3.46612 16.0166C3.69617 17.945 4.96428 18.9233 7.23117 18.9233C9.06039 18.9233 9.98623 18.2871 9.98623 17.0288C9.98623 15.6235 8.83314 15.3068 6.79631 14.8685C2.66092 13.9892 1.19642 12.844 1.19642 10.4914C1.21045 7.87876 3.37073 6.19069 6.70092 6.19069C10.3958 6.19069 12.4299 7.85614 12.5954 11.0032L10.0956 11.2917C9.90206 9.40848 8.7097 8.37076 6.72898 8.37076C5.04565 8.37076 4.07773 9.072 4.07773 10.2935C4.07773 11.597 5.09334 12.0438 7.37145 12.5584C11.0327 13.3841 12.7778 14.2352 12.7778 16.8479C12.7778 19.4605 10.6764 21.1175 7.29289 21.1175L7.29009 21.1203Z" fill="#2B2C30"/>
<path d="M55.0911 6.19069C52.8354 6.19069 50.9698 7.38959 50.0411 9.13986L49.9934 6.47345H47.3506V26.5663H50.2151V18.2588L50.3133 18.4511C51.2699 20.1392 52.9533 21.1203 55.0939 21.1203C59.0161 21.1203 61.4541 18.2447 61.4541 13.6188C61.4541 8.99283 59.0161 6.19069 55.0939 6.19069H55.0911ZM54.4514 18.5642C51.8451 18.5642 50.0944 16.5764 50.0944 13.6188C50.0944 10.6611 51.8451 8.74683 54.4514 8.74683C57.0578 8.74683 58.5419 10.5678 58.5419 13.6188C58.5419 16.6697 56.9736 18.5642 54.4514 18.5642Z" fill="#2B2C30"/>
<path d="M38.5945 6.19069C36.3389 6.19069 34.4732 7.38959 33.5445 9.13986L33.4968 6.47345H30.854V26.5663H33.7185V18.2588L33.8167 18.4511C34.7734 20.1392 36.4567 21.1203 38.5973 21.1203C42.5195 21.1203 44.9575 18.2447 44.9575 13.6188C44.9575 8.99283 42.5195 6.19069 38.5973 6.19069H38.5945ZM37.9549 18.5642C35.3485 18.5642 33.5978 16.5764 33.5978 13.6188C33.5978 10.6611 35.3485 8.74683 37.9549 8.74683C40.5612 8.74683 42.0454 10.5678 42.0454 13.6188C42.0454 16.6697 40.4771 18.5642 37.9549 18.5642Z" fill="#2B2C30"/>
<path d="M70.9368 21.1203C66.6163 21.1203 63.7153 18.1174 63.7153 13.6499C63.7153 9.18227 66.6163 6.19352 70.9368 6.19352C75.2574 6.19352 78.1443 9.19076 78.1443 13.6499C78.1443 18.109 75.249 21.1203 70.9368 21.1203ZM70.9368 8.73269C68.3305 8.73269 66.5798 10.7092 66.5798 13.6499C66.5798 16.5906 68.3305 18.5642 70.9368 18.5642C73.5432 18.5642 75.2939 16.5877 75.2939 13.6499C75.2939 10.712 73.5432 8.73269 70.9368 8.73269Z" fill="#2B2C30"/>
<path d="M87.661 6.16241C85.742 6.16241 83.9381 7.5649 83.1357 9.52724L83.1216 6.47345H80.5405V20.8206H83.3152V13.9609C83.3152 10.695 85.4979 9.236 87.6638 9.236C87.9977 9.236 88.3372 9.26993 88.6766 9.33497V6.26138C88.3316 6.19635 87.9921 6.16524 87.6638 6.16524L87.661 6.16241Z" fill="#2B2C30"/>
<path d="M95.511 21.0299C92.394 21.0299 90.8145 19.3814 90.8145 16.1297V2.29994L93.6621 1.88428V6.47345H98.1734V8.85145H93.6621V15.7281C93.6621 17.6113 94.414 18.4907 96.03 18.4907C96.6837 18.4907 97.3682 18.3295 98.1734 17.9874V20.5492C97.3262 20.88 96.4761 21.0327 95.511 21.0327V21.0299Z" fill="#2B2C30"/>
<path d="M116.886 20.8206V6.47345H119.751V20.8206H116.886ZM118.303 4.03324C117.254 4.03324 116.367 3.15386 116.367 2.11048C116.367 1.0671 117.237 0.218826 118.303 0.218826C119.369 0.218826 120.284 1.0671 120.284 2.11048C120.284 3.15386 119.394 4.03324 118.303 4.03324Z" fill="#2B2C30"/>
<path d="M133.038 20.8206V12.5839C133.038 10.0475 132.073 8.86559 130.002 8.86559C127.57 8.86559 126.06 10.6979 126.06 13.647V20.8206H123.196V6.47345H123.687L125.858 9.02958L125.937 8.88821C126.854 7.22276 128.697 6.19069 130.743 6.19069C134.118 6.19069 135.902 8.1389 135.902 11.8232V20.8206H133.038Z" fill="#2B2C30"/>
<path d="M110.574 20.8206V12.5839C110.574 10.0475 109.609 8.86559 107.538 8.86559C105.106 8.86559 103.596 10.6979 103.596 13.647V20.8206H100.732V6.47345H101.223L103.394 9.02958L103.473 8.88821C104.39 7.22276 106.234 6.19069 108.279 6.19069C111.654 6.19069 113.438 8.1389 113.438 11.8232V20.8206H110.574Z" fill="#2B2C30"/>
<path d="M20.1985 21.1062C16.8234 21.1062 15.0391 19.158 15.0391 15.4737V6.47628H17.9035V14.7752C17.9035 17.289 18.8686 18.4624 20.9391 18.4624C23.3716 18.4624 24.881 16.6415 24.881 13.7149V6.4791H27.7454V20.8263H27.2545L25.083 18.2701L25.0044 18.4115C24.0842 20.077 22.2437 21.1119 20.1985 21.1119V21.1062Z" fill="#2B2C30"/>
<path d="M136.163 26.9989V24.6237C136.197 24.6237 136.233 24.6237 136.267 24.6237C138.166 24.6237 139.014 23.7019 139.014 21.635V6.47345H141.878V21.635C141.878 25.1949 139.987 26.9989 136.258 26.9989H136.163ZM140.43 4.03041C139.381 4.03041 138.495 3.15103 138.495 2.10765C138.495 1.06428 139.364 0.216 140.43 0.216C141.496 0.216 142.411 1.06428 142.411 2.10765C142.411 3.15103 141.522 4.03041 140.43 4.03041Z" fill="#2B2C30"/>
<path d="M149.378 21.1062C146.426 21.1062 144.516 19.4181 144.516 16.8054C144.516 13.3756 148.143 12.6546 151.187 12.6546C152.147 12.6546 153.154 12.7309 154.094 12.8779L154.223 12.8977V12.0636C154.223 9.69124 153.168 8.54041 150.994 8.54041C149.075 8.54041 148.037 9.32931 147.641 11.0966L144.979 10.6272C145.486 7.76848 147.607 6.19352 150.966 6.19352C157 6.19352 157 10.6357 157 12.0947V20.945H156.464L154.416 18.5783L154.338 18.7112C153.617 19.9073 151.804 21.1119 149.378 21.1119V21.1062ZM151.471 14.6423C148.853 14.6423 147.633 15.3068 147.633 16.7291C147.633 18.1514 148.497 18.8328 150.135 18.8328C151.774 18.8328 154.226 17.4388 154.226 14.9194V14.8205L154.13 14.8063C154.13 14.8063 152.958 14.6423 151.471 14.6423Z" fill="#2B2C30"/>
</svg>
