<svg width="136" height="136" viewBox="0 0 136 136" fill="none" xmlns="http://www.w3.org/2000/svg">
<rect width="136" height="136" rx="68" fill="#F7E1D2"/>
<path d="M53 30.5001C59 26.5001 64 30.5001 60.5 44.0002C57 57.5003 67.5 54.0002 67.5 76.5002" stroke="#0C3A23" stroke-linejoin="round"/>
<path d="M86 29.4999C76 26.9999 71 34 73 42.5C75 51 76 67 76 86" stroke="#0C3A23" stroke-linejoin="round"/>
<path d="M69.9999 41.5C58.4999 46.5 69.4999 69.5 69.4999 86" stroke="#0C3A23" stroke-linejoin="round"/>
<path d="M52 51H84L76 75H60L52 51Z" fill="#EE4B4A"/>
<g clip-path="url(#clip0_2967_25376)">
<rect x="40" y="63" width="56" height="56" rx="28" fill="#EE4B4A"/>
<path d="M33.3398 105.23C35.5498 103.56 37.4398 102.03 39.4298 100.64C42.9698 98.1801 46.1798 95.4301 48.3398 91.6201C49.8698 88.9101 52.2798 87.7301 55.2998 87.5901C57.1998 87.5001 59.1098 87.4201 61.0098 87.3201C62.0098 87.2701 63.0198 87.2801 63.9898 87.1001C67.5798 86.4401 69.0398 82.6601 66.7498 79.8301C65.9098 78.8001 64.7798 77.9501 63.6498 77.2301C60.5598 75.2501 57.1198 73.9401 53.5498 73.3201C47.1898 72.2101 43.4698 68.7701 42.5898 62.3201C42.4598 61.3401 42.0898 60.3901 41.7498 59.4501C40.7898 56.8601 39.8098 56.3201 37.1998 57.0201C34.2598 57.8101 31.5898 59.1501 29.4298 61.3101C28.6598 62.0801 28.0598 62.3501 27.0098 61.5701C27.3198 61.0901 27.5198 60.5601 27.8898 60.2401C31.1198 57.4101 34.8398 55.6501 39.1898 55.5001C42.1698 55.4001 43.7498 56.4601 44.8298 59.2501C45.4498 60.8501 45.8798 62.5301 46.3398 64.1901C47.4598 68.2201 49.8698 70.7901 54.0998 71.6501C58.0298 72.4501 61.8098 73.7801 65.2798 75.8101C66.7398 76.6701 68.1798 77.7401 69.2898 79.0101C72.2198 82.3901 70.9798 86.7501 66.7398 88.0801C65.1198 88.5901 63.3498 88.6301 61.6498 88.8301C60.8398 88.9201 60.0098 88.9601 59.1998 88.9001C55.3098 88.6301 52.3898 89.8901 50.5598 93.6101C49.1798 96.4101 46.8698 98.5201 44.2698 100.28C41.9398 101.85 39.6298 103.46 37.2698 105C36.2098 105.69 35.0598 106.3 33.3398 105.24V105.23Z" fill="#FFFCFA"/>
<path d="M65.5202 107.8C65.5202 106.89 65.5202 106 65.5202 105.12C65.5202 104.31 65.6102 103.47 65.4702 102.68C65.0602 100.39 63.7602 99.6099 61.5502 100.42C57.0602 102.06 53.4602 104.98 50.7902 108.87C48.1802 112.68 45.9302 116.73 43.5402 120.68C43.1702 121.3 42.9102 121.99 42.5202 122.6C41.8602 123.64 40.9202 123.97 39.4302 123.49C40.7102 120.86 41.8402 118.31 43.1702 115.88C45.2202 112.14 47.4402 108.49 50.3502 105.34C52.6602 102.84 55.4102 100.94 58.5202 99.5699C60.3802 98.7499 62.3102 98.3099 64.3502 98.5499C67.1502 98.8799 68.5102 100.36 68.6402 103.2C68.6902 104.27 68.6402 105.35 68.6402 106.72C69.7102 106.62 70.5702 106.54 71.4302 106.46C75.1902 106.13 78.2302 107.31 80.1802 110.69C81.4102 112.81 82.6102 114.94 83.8002 117.08C85.9202 120.91 88.3802 124.47 92.0302 127.61C91.2802 127.76 90.6502 128.11 90.2702 127.92C89.1602 127.36 87.9802 126.76 87.1202 125.89C83.5502 122.25 80.4702 118.22 77.9602 113.77C77.2002 112.43 76.4002 111.1 75.4802 109.88C74.4202 108.48 73.0102 107.91 71.1702 108.24C69.4302 108.55 67.6002 109.09 65.5102 107.79L65.5202 107.8Z" fill="#FFFCFA"/>
<path d="M100.02 64.8701C98.9602 65.0201 98.4802 65.1401 98.0102 65.1401C97.2902 65.1401 96.5202 64.8701 95.8702 65.0601C90.8902 66.5101 86.4502 68.8301 83.3602 73.2101C81.8302 75.3801 81.8002 77.5801 83.1302 79.8401C83.6402 80.7001 84.1502 81.5601 84.6102 82.4401C86.6202 86.2701 86.3302 89.9501 83.7702 93.4301C83.0702 94.3801 82.3002 95.2801 81.6302 96.2501C79.4902 99.3201 79.6102 101.07 82.4102 103.58C83.7502 104.78 85.3302 105.73 86.8702 106.67C90.2002 108.7 93.5902 110.65 96.9402 112.65C97.5402 113.01 98.0702 113.47 98.8702 114.05C97.7002 114.84 96.8502 114.59 95.9702 114.1C91.5202 111.63 87.0502 109.23 82.6402 106.69C81.2402 105.88 79.9202 104.85 78.7502 103.73C76.6102 101.68 76.2802 99.1101 77.7602 96.5401C78.4802 95.2901 79.4302 94.1701 80.2902 93.0001C82.9102 89.4401 83.4102 85.7701 81.0302 81.8501C77.5202 76.0601 78.8802 74.0601 82.5002 70.3001C85.7702 66.9101 89.9602 64.8501 94.6202 63.9601C96.2502 63.6501 97.9602 63.5101 100.01 64.8701H100.02Z" fill="#FFFCFA"/>
</g>
<path d="M74.9999 26.9999C77.4999 24.4999 81.4999 24.5 85.9999 28C84.8332 26 82.9999 24.0001 83.4999 23.0001C83.9999 22.0001 86.4999 21.5 90.4999 24.5C94.4999 27.5 98.9999 36 98.9999 45.9999C94.9999 42.5 90.1999 39.9999 82.9999 37.9999C73.9999 35.4999 72.4999 29.4999 74.9999 26.9999Z" fill="#0C3A23"/>
<path d="M37 50C41.9675 47.1722 41.9675 30.2052 44.8061 26.6703C47.6446 23.1354 51.9025 22.4285 53.3218 28.7911C57.5796 25.2563 59.7086 25.9632 61.8375 28.084C63.9664 30.2048 62.0558 36.4437 57.798 40.6856C53.5401 44.9276 49.7736 48.5861 37 50Z" fill="#0C3A23"/>
<path d="M63.5 42.0001C62 37.0001 69 36.5001 71 38.5001C73.4999 34.5002 79 37.0001 80 42.0001C81 47.0002 78.5 48.5001 76 56.0001C75 52.5001 65 47.0001 63.5 42.0001Z" fill="#0C3A23"/>
<defs>
<clipPath id="clip0_2967_25376">
<rect x="40" y="63" width="56" height="56" rx="28" fill="white"/>
</clipPath>
</defs>
</svg>
