<svg width="110" height="172" viewBox="0 0 110 172" fill="none" xmlns="http://www.w3.org/2000/svg">
<g clip-path="url(#clip0_3073_34882)">
<path d="M-155 272.184C-154.59 271.874 -154.36 271.574 -154.07 271.484C-148.03 269.594 -142.65 266.344 -137.36 262.994C-116.37 249.724 -96.29 235.214 -77.69 218.714C-73.21 214.744 -68.87 210.574 -64.79 206.184C-51.24 191.604 -34.97 181.154 -16.58 173.784C-9.25 170.844 -2.02 167.674 5.25 164.574C9.85001 162.614 14.28 160.304 18.33 157.344C25.48 152.124 30.14 145.084 33.06 136.874C34.55 132.694 35.64 128.374 36.94 124.124C37.66 121.784 38.35 119.434 39.22 117.154C40.48 113.834 42.88 111.544 46.23 110.374C49.91 109.094 53.63 107.884 57.34 106.704C67.22 103.574 76.38 99.0938 84.28 92.2638C93.01 84.7038 99.94 75.8738 103.68 64.7938C106.36 56.8638 106.38 48.9338 103.6 41.0238C102.13 36.8338 100.59 32.6638 99.03 28.4938C96.55 21.8638 95.34 15.0338 95.8 7.94381C96.14 2.62381 97.63 -2.40618 99.81 -7.24618C103.19 -14.7462 107.66 -21.5662 112.89 -27.8862C121.15 -37.8562 130.29 -46.9262 140.82 -54.5062C143.24 -56.2462 145.86 -57.7562 148.53 -59.0862C149.84 -59.7362 151.48 -59.7962 152.98 -59.9962C153.37 -60.0462 153.82 -59.5962 154.23 -59.1662C149.33 -59.1962 145.91 -56.1462 142.46 -53.5362C130.01 -44.0962 119.09 -33.1062 110.09 -20.2962C107 -15.9062 104.38 -11.2362 102.19 -6.32618C97.32 4.59382 97.18 15.6338 101.27 26.7938C102.61 30.4538 103.87 34.1538 105.36 37.7638C110.93 51.1938 109.02 63.8938 101.69 76.0338C93.1 90.2638 80.73 99.9738 65.28 105.804C60.45 107.634 55.51 109.234 50.54 110.624C45.5 112.024 42.35 115.054 40.98 120.054C39.73 124.604 38.49 129.154 37.15 133.674C35.76 138.394 33.87 142.914 31.32 147.134C27.5 153.424 22.27 158.334 15.73 161.574C8.98999 164.914 1.99001 167.714 -4.87 170.824C-13.63 174.794 -22.48 178.594 -31.07 182.904C-40.64 187.694 -48.96 194.314 -56.54 201.874C-62.01 207.324 -67.47 212.784 -73.07 218.094C-81.52 226.114 -90.8 233.124 -100.13 240.064C-112.38 249.174 -124.83 257.984 -138.01 265.714C-142.4 268.284 -146.82 270.794 -151.74 272.244C-152.76 272.544 -153.74 272.984 -154.99 272.184H-155Z" fill="#2B2C30"/>
<path d="M37.02 -79.0199C39.27 -80.4499 40.34 -80.3799 41.7 -78.3799C44.4 -74.4099 47.16 -70.4399 49.54 -66.2799C57.35 -52.6599 62.35 -38.0399 64.36 -22.4699C66.96 -2.28992 64.46 17.3501 57.66 36.4801C51.67 53.3401 42.63 68.4801 31.5 82.4001C13.05 105.48 -9.60001 123.59 -35.24 138.06C-61.19 152.71 -88.84 162.87 -117.93 169.23C-132.05 172.31 -146.31 174.48 -160.72 175.63C-162.07 175.74 -162.08 175.72 -164 174.88C-162.76 174.66 -162.04 174.48 -161.3 174.42C-147.44 173.29 -133.68 171.46 -120.08 168.5C-79.25 159.61 -41.7 143.47 -8.43001 117.93C9.79999 103.94 25.52 87.5601 37.86 68.1001C47.82 52.4001 55.03 35.5301 58.6 17.2301C60.62 6.87009 61.39 -3.59991 60.67 -14.1899C59.12 -36.9599 51.47 -57.5199 38.75 -76.3299C38.15 -77.2199 37.59 -78.1299 37.01 -79.0299L37.02 -79.0199Z" fill="#2B2C30"/>
</g>
<defs>
<clipPath id="clip0_3073_34882">
<rect width="110" height="172" fill="white"/>
</clipPath>
</defs>
</svg>
