<svg width="160" height="167" viewBox="0 0 160 167" fill="none" xmlns="http://www.w3.org/2000/svg">
<g clip-path="url(#clip0_3073_34886)">
<path d="M6.90249 -6.99237C5.88889 -6.48799 5.11412 -6.10996 4.22675 -5.66692C3.23581 -2.0233 3.44253 1.79488 3.576 5.58607C4.07677 20.2734 6.44774 34.62 11.4871 48.4884C15.6311 59.906 21.3033 70.5107 27.8903 80.6796C32.73 88.1622 37.9281 95.3455 44.0398 101.851C55.3447 113.892 68.5792 122.775 84.7678 126.834C91.6682 128.566 98.668 129.49 106.198 129.253C105.801 128.224 105.465 127.344 105.135 126.472C102.213 118.991 101.77 111.464 104.825 103.915C106.374 100.077 108.892 97.0178 112.663 95.21C118.115 92.5933 123.354 93.4482 128.098 96.8641C133.446 100.728 136.096 106.218 136.149 112.769C136.198 119.254 132.637 123.665 127.099 126.574C122.965 128.753 118.461 129.852 113.878 130.674C113 130.834 112.113 130.977 110.778 131.205C112.519 133.641 113.977 135.905 115.652 137.987C119.971 143.368 125.386 147.447 131.376 150.801C142.929 157.272 155.137 161.678 168.494 162.372C179.208 162.93 189.732 161.658 200.049 158.888C209.516 156.344 218.899 153.456 228.313 150.722C229.797 150.292 231.286 149.872 232.903 149.412C233.853 148.978 234.007 147.065 235.86 147.554C235.928 149.131 235.299 150.303 233.901 151.041C233.263 151.375 232.592 151.693 231.896 151.887C219.938 155.315 208.049 159.004 195.996 162.048C183.105 165.299 169.957 166.227 156.819 163.651C142.498 160.846 129.567 154.848 118.339 145.442C114.419 142.151 111.301 138.131 108.689 133.727C108.284 133.026 107.874 132.316 107.409 131.51C106.378 131.505 105.391 131.475 104.415 131.484C81.1614 131.688 61.3228 123.546 44.8287 107.158C37.5778 99.9587 31.2427 92.0462 26.0511 83.2541C22.2168 76.7729 18.286 70.3244 14.8204 63.6418C10.8932 56.0597 8.19776 47.951 5.91105 39.7103C2.35626 26.9132 1.17808 13.8525 1.41937 0.630457C1.44977 -1.17688 1.63499 -3.01586 2.07252 -4.75803C2.66476 -7.13224 4.12679 -7.78005 6.90616 -7.00603L6.90249 -6.99237ZM109.892 129.13C116.021 128.547 121.779 127.52 127.058 124.623C129.934 123.044 131.713 120.665 132.514 117.513C133.894 112.004 132.316 107.13 129.184 102.646C126.606 98.9608 122.995 96.8657 118.594 96.1622C114.965 95.578 111.969 96.7883 109.757 99.7167C108.997 100.721 108.325 101.837 107.861 102.993C104.267 111.928 105.392 120.516 109.905 129.134L109.892 129.13Z" fill="#2B2C30"/>
<path d="M85.6275 -37.3873C85.5153 -37.2417 85.443 -37.0268 85.2981 -36.9778C79.5344 -34.7009 75.9489 -30.1713 73.2671 -24.9163C66.3 -11.2637 65.6559 2.86067 70.5291 17.3214C73.3082 25.5549 78.1148 32.5602 83.7537 39.0271C92.1828 48.6867 101.284 57.6698 111.594 65.308C131 79.6804 152.668 88.6708 176.609 92.1575C188.234 93.8522 199.939 94.2652 211.643 94.4587C215.994 94.5336 220.355 94.4869 224.705 94.4812C225.072 94.477 225.433 94.3836 225.798 94.3349L225.876 95.1904C224.553 96.1389 223.222 97.0925 222.289 97.7578C220.753 97.5364 219.67 97.2609 218.585 97.2409C203.24 96.9433 187.885 96.9286 172.682 94.3556C143.697 89.4513 118.245 77.3681 96.9454 56.9759C91.1319 51.4066 85.5478 45.5546 80.2505 39.4793C73.4284 31.6632 68.3603 22.7651 66.1886 12.4835C63.457 -0.407765 64.8182 -12.81 71.133 -24.4925C73.8469 -29.5119 77.3626 -33.8627 82.4278 -36.7294C83.3198 -37.2444 84.3618 -37.4995 85.3251 -37.871C85.4151 -37.7151 85.5101 -37.5505 85.6001 -37.3947L85.6275 -37.3873Z" fill="#2B2C30"/>
</g>
<defs>
<clipPath id="clip0_3073_34886">
<rect width="160" height="167" fill="white"/>
</clipPath>
</defs>
</svg>
