<svg width="31" height="25" viewBox="0 0 31 25" fill="none" xmlns="http://www.w3.org/2000/svg">
<path d="M14.0488 0.5C6.34147 1.67073 0 7.62195 0 15.5244C0 21.0854 3.60976 24.5 7.5122 24.5C10.5366 24.5 12.6829 22.4512 12.6829 19.5244C12.6829 17.5732 11.7073 15.3293 8.48781 14.5488C6.43903 13.9634 3.80488 13.2805 4 10.5488C4.09756 6.06098 9.95122 2.06097 14.1463 1.08536L14.0488 0.5ZM30.7317 0.5C23.0244 1.67073 16.5854 7.62195 16.5854 15.5244C16.5854 21.0854 20.2927 24.5 24.1951 24.5C27.2195 24.5 29.3659 22.4512 29.3659 19.5244C29.3659 17.5732 28.3903 15.3293 25.1707 14.5488C23.122 13.9634 20.4878 13.2805 20.6829 10.5488C20.7805 6.06098 26.6342 2.06097 30.8293 1.08536L30.7317 0.5Z" fill="#0C3A23"/>
</svg>
