<svg width="32" height="32" viewBox="0 0 32 32" fill="none" xmlns="http://www.w3.org/2000/svg">
<path fill-rule="evenodd" clip-rule="evenodd" d="M15 6C14.4477 6 14 6.44772 14 7V8.25203C13.2659 8.44097 12.5727 8.73147 11.936 9.10766L11.0502 8.22182C10.6597 7.83129 10.0265 7.83129 9.63597 8.22182L8.22176 9.63603C7.83123 10.0266 7.83123 10.6597 8.22176 11.0502L9.10761 11.9361C8.73144 12.5727 8.44096 13.266 8.25204 14H7C6.44772 14 6 14.4477 6 15V17C6 17.5523 6.44772 18 7 18H8.25203C8.44096 18.734 8.73144 19.4273 9.10761 20.0639L8.22171 20.9498C7.83118 21.3403 7.83118 21.9735 8.22171 22.364L9.63592 23.7782C10.0264 24.1688 10.6596 24.1688 11.0501 23.7782L11.936 22.8923C12.5727 23.2685 13.2659 23.559 14 23.748V25C14 25.5523 14.4477 26 15 26H17C17.5523 26 18 25.5523 18 25V23.748C18.734 23.559 19.4273 23.2686 20.0639 22.8924L20.9497 23.7782C21.3402 24.1687 21.9734 24.1687 22.3639 23.7782L23.7781 22.364C24.1686 21.9734 24.1686 21.3403 23.7781 20.9497L22.8923 20.064C23.2685 19.4273 23.559 18.7341 23.748 18H25C25.5523 18 26 17.5523 26 17V15C26 14.4477 25.5523 14 25 14H23.748C23.559 13.2659 23.2685 12.5727 22.8923 11.936L23.7781 11.0503C24.1686 10.6598 24.1686 10.0266 23.7781 9.63609L22.3638 8.22188C21.9733 7.83135 21.3402 7.83135 20.9496 8.22188L20.0639 9.10761C19.4273 8.73144 18.734 8.44096 18 8.25203V7C18 6.44772 17.5523 6 17 6H15ZM16 20C18.2091 20 20 18.2091 20 16C20 13.7909 18.2091 12 16 12C13.7909 12 12 13.7909 12 16C12 18.2091 13.7909 20 16 20Z" fill="#2B2C30"/>
</svg>
