<svg width="152" height="40" viewBox="0 0 152 40" fill="none" xmlns="http://www.w3.org/2000/svg">
<g clip-path="url(#clip0_3842_38722)">
<path d="M144.374 8.6001C143.65 8.6001 143.046 9.2401 143.046 9.9201V16.0001C139.747 13.1201 134.798 13.4401 131.901 16.7201C129.003 20.0001 129.325 24.9201 132.625 27.8001C135.924 30.6801 140.874 30.3601 143.771 27.0801C145.018 25.6801 145.742 23.8001 145.742 21.8401V10.0001C145.783 9.2401 145.139 8.6001 144.374 8.6001ZM143.046 21.9601C143.046 24.8401 140.672 27.2001 137.775 27.2001C134.878 27.2001 132.504 24.8401 132.504 21.9601C132.504 19.0801 134.878 16.7201 137.775 16.7201C140.672 16.8001 143.046 19.1601 143.046 21.9601Z" fill="#2B2C30"/>
<path d="M117.817 21.9601C117.817 17.6001 114.276 14.0801 109.89 14.0801C105.504 14.0801 101.963 17.6001 101.963 21.9601C101.963 26.3201 105.504 29.8401 109.89 29.8401C111.862 29.8401 113.753 29.1201 115.161 27.8801V28.5201C115.081 29.2401 115.644 29.9201 116.409 29.9201C117.173 29.9201 117.817 29.4401 117.817 28.6801C117.817 28.6001 117.817 28.5201 117.817 28.4401V21.9601ZM109.931 27.2001C107.033 27.2001 104.659 24.8401 104.659 21.9601C104.659 19.0801 107.033 16.7201 109.931 16.7201C112.828 16.7201 115.202 19.0801 115.202 21.9601C115.121 24.8401 112.787 27.2001 109.931 27.2001Z" fill="#2B2C30"/>
<path d="M97.8993 14.0801C97.175 14.0801 96.5715 14.7201 96.5715 15.4001V21.9601C96.6519 24.8401 94.4389 27.2801 91.5417 27.3601C88.6446 27.4401 86.19 25.2401 86.1096 22.3601C86.1096 22.2001 86.1096 22.1201 86.1096 21.9601V15.4001C86.0291 14.6801 85.3853 14.1601 84.7012 14.1601C84.0574 14.2401 83.5343 14.7201 83.4539 15.4001V21.9601C83.4539 25.8001 86.2705 29.0801 90.0529 29.6801V33.8801C90.1334 34.6001 90.7772 35.1201 91.4612 35.1201C92.105 35.0401 92.6281 34.5601 92.7086 33.8801V29.6801C96.491 29.0401 99.3077 25.7601 99.3077 21.9601V15.4001C99.2674 14.6801 98.6236 14.0801 97.8993 14.0801Z" fill="#2B2C30"/>
<path d="M129.808 15.2401C129.728 15.0001 129.647 14.6801 129.406 14.5201C129.245 14.3601 129.164 14.2801 129.003 14.2001C128.842 14.1201 128.681 14.1201 128.52 14.1201C124.135 14.1201 120.594 17.6401 120.594 22.0001V28.5601C120.513 29.2801 121.076 29.9601 121.841 29.9601C122.605 29.9601 123.249 29.4801 123.249 28.7201C123.249 28.6401 123.249 28.5601 123.249 28.4801V21.9601C123.249 19.0801 125.623 16.7201 128.52 16.7201C129.245 16.7201 129.848 16.0801 129.848 15.4001C129.808 15.4001 129.808 15.3201 129.808 15.2401Z" fill="#2B2C30"/>
<path d="M60.6387 14.0801C59.9145 14.0801 59.3109 14.7201 59.3109 15.4001V28.5201C59.2304 29.2401 59.7937 29.9201 60.5583 29.9201C61.2825 30.0001 61.9666 29.4401 61.9666 28.6801C61.9666 28.6001 61.9666 28.5201 61.9666 28.4401V15.4001C62.0068 14.6801 61.4435 14.0801 60.6387 14.0801Z" fill="#2B2C30"/>
<path d="M55.8504 14.2399C55.2066 13.9199 54.3616 14.1599 54.0397 14.8799L48.6075 25.5999L43.2559 14.8799C42.8535 14.2399 42.0085 14.1599 41.3647 14.5599C40.8818 14.8799 40.6404 15.4799 40.8818 16.0399L47.4809 29.1599C47.8028 29.7999 48.6478 30.0799 49.2916 29.7199C49.533 29.5599 49.7744 29.3999 49.8549 29.1599L56.4942 15.9999C56.8161 15.3999 56.4942 14.5199 55.8504 14.2399Z" fill="#2B2C30"/>
<path d="M79.2691 8.6001C78.5448 8.6001 77.9413 9.2401 77.9413 9.9201V16.0001C74.6418 13.2001 69.612 13.4801 66.7953 16.8001C63.9787 20.1201 64.2201 25.0001 67.5196 27.8801C70.8191 30.7601 75.7684 30.4401 78.6656 27.1601C79.9129 25.7601 80.6372 23.8801 80.6372 21.9201V10.0001C80.6372 9.2401 80.0739 8.6001 79.2691 8.6001ZM77.9413 21.9601C77.9413 24.8401 75.5672 27.2001 72.6701 27.2001C69.773 27.2001 67.3989 24.8401 67.3989 21.9601C67.3989 19.0801 69.773 16.7201 72.6701 16.7201C75.6075 16.8001 77.9413 19.1601 77.9413 21.9601Z" fill="#2B2C30"/>
<path d="M18.1475 5.16003C19.4754 5.16003 20.8032 5.32003 22.1713 5.64003C22.4932 5.72003 22.8151 5.56003 22.9761 5.24003C23.137 4.84003 22.8956 4.44003 22.5737 4.32003H22.4932C19.6765 3.60003 16.7392 3.60003 13.9225 4.32003C13.5201 4.40003 13.2787 4.80003 13.3592 5.16003V5.24003C13.5201 5.56003 13.842 5.72003 14.1639 5.64003C15.4515 5.40003 16.7794 5.16003 18.1475 5.16003Z" fill="#2B2C30"/>
<path d="M26.7583 7.03989C26.6779 7.35989 26.8388 7.59989 27.0803 7.75989C34.9267 12.6799 37.2202 22.9999 32.271 30.7199C27.3217 38.4399 17.0207 40.8799 9.17431 35.9599C1.32788 31.0399 -0.965685 20.7199 3.9836 12.9599C5.31145 10.8399 7.12217 9.03989 9.25479 7.71989C9.49621 7.55989 9.65717 7.31989 9.57669 6.99989C9.49621 6.59989 9.17431 6.35989 8.77193 6.43989C8.69145 6.43989 8.61098 6.51989 8.5305 6.51989C0.0402666 11.8799 -2.53497 22.9599 2.73622 31.4799C8.00741 39.9999 19.2338 42.4799 27.8045 37.2799C36.2948 31.9599 38.87 20.8799 33.6391 12.3599C32.1905 9.99989 30.2188 8.03989 27.885 6.63989C27.5631 6.39989 27.0803 6.55989 26.9595 6.87989C26.8388 6.87989 26.7583 6.95989 26.7583 7.03989Z" fill="#2B2C30"/>
<path d="M21.8895 11.8C21.0445 11.64 20.0788 11.48 19.2338 11.48C18.8314 11.48 18.5095 11.48 18.1473 11.48C17.0609 11.48 15.9342 11.56 14.9283 11.8C11.1459 12.44 7.68544 14.24 4.94926 16.8C4.70783 17.04 4.54688 17.44 4.54688 17.8L6.27711 31.56C11.6288 38.04 21.2859 39.08 27.885 33.76C28.6897 33.12 29.3738 32.36 30.0981 31.56L30.3395 29.44C31.9892 28.52 32.9952 26.8 32.9147 24.84C32.9147 23.44 32.3514 22.04 31.3454 21L31.7478 17.72C31.8283 17.32 31.6673 17 31.4259 16.72C29.8566 15.24 28.0459 14 26.0742 13.12C24.7464 12.6 23.3783 12.12 21.8895 11.8Z" fill="#2B2C30"/>
<path d="M16.4975 28.5999C15.9342 28.9199 15.4111 28.9999 14.7673 28.9999C12.5542 28.9199 10.824 27.1999 10.9044 24.9999C10.9044 24.9199 10.9044 24.9199 10.9044 24.8399C10.824 22.6399 12.4737 20.8399 14.6063 20.6799C14.6868 20.6799 14.6868 20.6799 14.7673 20.6799C15.6928 20.6799 16.578 20.9999 17.3023 21.5999C18.1473 22.3999 18.7106 23.5599 18.6301 24.7999C18.6704 26.3999 17.8254 27.7999 16.4975 28.5999Z" fill="#2B2C30"/>
<path d="M29.8567 28.5999C29.2933 28.9199 28.6898 28.9999 28.1264 28.9999C25.9133 28.9199 24.1831 27.1999 24.2636 24.9999C24.2636 24.9199 24.2636 24.9199 24.2636 24.8399C24.1831 22.6399 25.8329 20.8399 27.9655 20.6799C28.0459 20.6799 28.0459 20.6799 28.1264 20.6799C29.0519 20.6799 29.9371 20.9999 30.6614 21.5999C31.5064 22.4399 32.0698 23.5599 31.9893 24.7999C32.0295 26.3999 31.1845 27.7999 29.8567 28.5999Z" fill="#2B2C30"/>
<path d="M11.83 12.52C11.4276 9.8 10.985 6.96 10.5826 4.72C9.25478 4.8 8.12812 3.8 8.12812 2.44C8.08788 1.08 9.09383 0 10.4217 0C11.7495 0 12.8762 1 12.8762 2.28C12.9567 3.2 12.3934 4.08 11.6288 4.48L14.4455 11.84C13.5603 12.04 12.7153 12.28 11.83 12.52Z" fill="#2B2C30"/>
<path d="M21.8896 11.7999L24.7063 4.43995C23.5394 3.87995 23.0566 2.39995 23.7004 1.31995C24.2637 0.159948 25.7525 -0.320052 26.8389 0.319948C27.9254 0.959948 28.4887 2.35995 27.8449 3.43995C27.4425 4.23995 26.5975 4.75995 25.7123 4.67995C25.3099 6.95995 24.9075 9.75995 24.4649 12.4799C23.6199 12.1999 22.7749 11.9599 21.8896 11.7999Z" fill="#2B2C30"/>
<path d="M16.4975 28.5999C15.9342 28.9199 15.4111 28.9999 14.7673 28.9999C12.5542 28.9199 10.824 27.1999 10.9044 24.9999C10.9044 24.9199 10.9044 24.9199 10.9044 24.8399C10.824 22.6399 12.4737 20.8399 14.6063 20.6799C14.6868 20.6799 14.6868 20.6799 14.7673 20.6799C15.6928 20.6799 16.578 20.9999 17.3023 21.5999C18.1473 22.3999 18.7106 23.5599 18.6301 24.7999C18.6704 26.3999 17.8254 27.7999 16.4975 28.5999Z" fill="#FFFCFA"/>
<path d="M29.8567 28.5999C29.2933 28.9199 28.6898 28.9999 28.1264 28.9999C25.9133 28.9199 24.1831 27.1999 24.2636 24.9999C24.2636 24.9199 24.2636 24.9199 24.2636 24.8399C24.1831 22.6399 25.8329 20.8399 27.9655 20.6799C28.0459 20.6799 28.0459 20.6799 28.1264 20.6799C29.0519 20.6799 29.9371 20.9999 30.6614 21.5999C31.5064 22.4399 32.0698 23.5599 31.9893 24.7999C32.0295 26.3999 31.1845 27.7999 29.8567 28.5999Z" fill="#FFFCFA"/>
<path d="M28.3679 23.36C28.0459 22.8 27.2814 22.64 26.7181 22.96C26.5571 23.04 26.3962 23.2 26.3157 23.36C26.0743 23.76 25.9133 24.2 25.9133 24.68C25.9133 25.24 25.9938 25.68 26.3157 26.08C26.5571 26.48 26.879 26.64 27.3217 26.72C27.724 26.72 28.1264 26.48 28.3276 26.16C28.6495 25.76 28.8105 25.24 28.73 24.76C28.8105 24.32 28.6495 23.76 28.3679 23.36Z" fill="#2B2C30"/>
<path d="M27.6435 24.6399C27.9102 24.6399 28.1264 24.425 28.1264 24.1599C28.1264 23.8948 27.9102 23.6799 27.6435 23.6799C27.3768 23.6799 27.1606 23.8948 27.1606 24.1599C27.1606 24.425 27.3768 24.6399 27.6435 24.6399Z" fill="#FFFCFA"/>
<path d="M15.049 23.36C14.7271 22.8 13.9626 22.64 13.3992 22.96C13.2383 23.04 13.0773 23.2 12.9969 23.36C12.7554 23.76 12.5945 24.28 12.5945 24.76C12.5945 25.32 12.675 25.76 12.9969 26.16C13.3188 26.72 14.0028 26.96 14.5661 26.64C14.7271 26.56 14.8881 26.4 15.049 26.16C15.3709 25.76 15.5319 25.24 15.4514 24.76C15.4514 24.24 15.2904 23.76 15.049 23.36Z" fill="#2B2C30"/>
<path d="M14.2846 24.6399C14.5513 24.6399 14.7675 24.425 14.7675 24.1599C14.7675 23.8948 14.5513 23.6799 14.2846 23.6799C14.0179 23.6799 13.8018 23.8948 13.8018 24.1599C13.8018 24.425 14.0179 24.6399 14.2846 24.6399Z" fill="#FFFCFA"/>
<path d="M150.088 11.4799C150.41 11.3199 150.571 11.0799 150.571 10.7599C150.571 10.1999 150.169 9.91992 149.565 9.91992H148.72C148.559 9.91992 148.398 10.0799 148.398 10.2399V12.0399C148.398 12.1999 148.559 12.3599 148.72 12.3599C148.881 12.3599 149.042 12.1999 149.042 12.0399V11.5599H149.364L149.927 12.1999C150.008 12.2799 150.088 12.3599 150.169 12.3599C150.33 12.3599 150.49 12.1999 150.49 12.0399C150.49 11.9599 150.49 11.8799 150.41 11.7999L150.088 11.4799ZM149.485 11.0799H149.002V10.4399H149.485C149.726 10.4399 149.887 10.5199 149.887 10.7599C149.887 10.9999 149.726 11.0799 149.485 11.0799Z" fill="#2B2C30"/>
<path d="M149.404 13.6801C147.996 13.6801 146.829 12.6001 146.829 11.1601C146.829 9.7201 147.915 8.6001 149.364 8.6001C150.812 8.6001 151.939 9.6801 151.939 11.1201C151.939 11.1201 151.939 11.1201 151.939 11.2001C151.899 12.6001 150.732 13.6801 149.404 13.6801ZM149.404 9.0801C148.237 9.0801 147.271 9.9201 147.271 11.1201C147.271 12.3201 148.116 13.2401 149.324 13.2401C150.49 13.2401 151.456 12.4001 151.456 11.2001C151.456 10.0001 150.49 9.0801 149.404 9.0801Z" fill="#2B2C30"/>
</g>
<defs>
<clipPath id="clip0_3842_38722">
<rect width="152" height="40" fill="white"/>
</clipPath>
</defs>
</svg>
