<svg width="425" height="72" viewBox="0 0 425 72" fill="none" xmlns="http://www.w3.org/2000/svg">
<path d="M292.77 11.26H286.83C286.31 11.26 285.85 11.62 285.72 12.12L278.4 41.39C278.3 41.8 277.73 41.81 277.61 41.41L268.97 12.17C268.65 11.08 267.1 11.08 266.78 12.17L258.14 41.41C258.02 41.81 257.45 41.8 257.35 41.39L250.03 12.12C249.9 11.61 249.45 11.26 248.92 11.26H242.98C242.24 11.26 241.69 11.96 241.87 12.68L255.12 65.19C255.4 66.31 256.97 66.35 257.32 65.25L267.67 31.97C267.73 31.77 268.02 31.77 268.09 31.97L278.44 65.25C278.78 66.35 280.36 66.31 280.64 65.19L293.89 12.68C294.06 11.96 293.51 11.26 292.77 11.26Z" fill="#2B2C30"/>
<path d="M424.63 64.88L411.11 38.78C410.94 38.45 410.94 38.05 411.11 37.71L423.97 12.9C424.37 12.13 423.81 11.21 422.94 11.21H416.35C415.91 11.21 415.52 11.45 415.32 11.84L401.88 38C401.63 38.49 400.89 38.31 400.89 37.76V12.36C400.89 11.72 400.37 11.2 399.73 11.2H393.75C393.11 11.2 392.59 11.72 392.59 12.36V65.41C392.59 66.05 393.11 66.57 393.75 66.57H399.73C400.37 66.57 400.89 66.05 400.89 65.41V57.72C400.89 57.53 400.93 57.35 401.02 57.19L405.81 47.95C406.01 47.57 406.55 47.57 406.74 47.95L415.98 65.95C416.18 66.34 416.58 66.58 417.01 66.58H423.6C424.47 66.57 425.03 65.65 424.63 64.88Z" fill="#2B2C30"/>
<path d="M73.6 11.18L49.54 11.2C48.91 11.2 48.4 11.71 48.4 12.34V65.42C48.4 66.06 48.92 66.58 49.56 66.58H73.6C74.24 66.58 74.76 66.06 74.76 65.42V60.07C74.76 59.43 74.24 58.91 73.6 58.91H57.86C57.22 58.91 56.7 58.39 56.7 57.75V50.27C56.7 49.63 57.22 49.11 57.86 49.11H70.73C71.37 49.11 71.89 48.59 71.89 47.95V42.6C71.89 41.96 71.37 41.44 70.73 41.44H57.86C57.22 41.44 56.7 40.92 56.7 40.28V20C56.7 19.36 57.22 18.84 57.86 18.84H73.6C74.24 18.84 74.76 18.32 74.76 17.68V12.33C74.75 11.7 74.24 11.18 73.6 11.18Z" fill="#2B2C30"/>
<path d="M331.62 11.18L307.56 11.2C306.93 11.2 306.42 11.71 306.42 12.34V65.42C306.42 66.06 306.94 66.58 307.58 66.58H331.62C332.26 66.58 332.78 66.06 332.78 65.42V60.07C332.78 59.43 332.26 58.91 331.62 58.91H315.88C315.24 58.91 314.72 58.39 314.72 57.75V50.27C314.72 49.63 315.24 49.11 315.88 49.11H328.75C329.39 49.11 329.91 48.59 329.91 47.95V42.6C329.91 41.96 329.39 41.44 328.75 41.44H315.88C315.24 41.44 314.72 40.92 314.72 40.28V20C314.72 19.36 315.24 18.84 315.88 18.84H331.62C332.26 18.84 332.78 18.32 332.78 17.68V12.33C332.77 11.7 332.25 11.18 331.62 11.18Z" fill="#2B2C30"/>
<path d="M374.62 11.18L350.56 11.2C349.93 11.2 349.42 11.71 349.42 12.34V65.42C349.42 66.06 349.94 66.58 350.58 66.58H374.62C375.26 66.58 375.78 66.06 375.78 65.42V60.07C375.78 59.43 375.26 58.91 374.62 58.91H358.88C358.24 58.91 357.72 58.39 357.72 57.75V50.27C357.72 49.63 358.24 49.11 358.88 49.11H371.75C372.39 49.11 372.91 48.59 372.91 47.95V42.6C372.91 41.96 372.39 41.44 371.75 41.44H358.88C358.24 41.44 357.72 40.92 357.72 40.28V20C357.72 19.36 358.24 18.84 358.88 18.84H374.62C375.26 18.84 375.78 18.32 375.78 17.68V12.33C375.78 11.7 375.26 11.18 374.62 11.18Z" fill="#2B2C30"/>
<path d="M11.24 11.26H1.67C1.03 11.26 0.510002 11.78 0.510002 12.42V65.48C0.510002 66.12 1.03 66.64 1.67 66.64H7.66C8.3 66.64 8.82 66.12 8.82 65.48V54.17C8.82 53.53 9.34 53.01 9.98 53.01H12.4C13.26 53.01 14.1 52.94 14.93 52.83C15.43 52.76 15.91 53.04 16.13 53.49L22.16 65.98C22.35 66.38 22.76 66.63 23.2 66.63H29.78C30.63 66.63 31.19 65.74 30.82 64.97L23.77 50.36C23.53 49.86 23.68 49.28 24.12 48.94C28.53 45.47 31.37 40.09 31.37 34.04V31.38C31.36 20.27 22.35 11.26 11.24 11.26ZM24.01 32.2C24.01 39.56 18.05 45.52 10.69 45.52H9.98C9.34 45.52 8.82 45 8.82 44.36V19.9C8.82 19.26 9.34 18.74 9.98 18.74H10.69C18.05 18.74 24.01 24.7 24.01 32.06V32.2Z" fill="#2B2C30"/>
<path d="M105.18 11.2H92.63C91.99 11.2 91.47 11.72 91.47 12.36V65.43C91.47 66.06 91.98 66.57 92.61 66.57H105.18C115.65 66.57 125.89 56.15 125.89 40.98V36.84C125.89 21.68 115.65 11.2 105.18 11.2ZM118.53 40.3C118.53 51.5 111.34 59.09 104.62 59.09H100.91C100.28 59.09 99.78 58.58 99.78 57.96V19.88C99.78 19.25 100.29 18.75 100.91 18.75H104.62C111.34 18.75 118.53 26.34 118.53 37.54V40.3Z" fill="#2B2C30"/>
<path d="M215.78 54.07C212.96 53.77 206.82 53.06 201.86 52.07C195.09 50.71 188.42 48.61 186.52 47.99C186.17 47.88 185.8 47.88 185.46 47.99C183.57 48.61 177.09 50.68 170.16 52.07C165.2 53.06 159.07 53.77 156.24 54.07C155.35 54.16 154.68 54.91 154.68 55.81V58.35C154.68 59.46 155.65 60.33 156.76 60.21C159.88 59.86 165.89 59.12 170.37 58.24C177.22 56.88 183.61 54.82 185.47 54.2C185.82 54.08 186.19 54.08 186.54 54.2C188.4 54.82 194.79 56.88 201.64 58.24C206.12 59.13 212.13 59.86 215.25 60.21C216.36 60.34 217.33 59.47 217.33 58.35V55.81C217.34 54.91 216.67 54.16 215.78 54.07Z" fill="#2B2C30"/>
<path d="M188.24 0.679991C167.34 -0.560009 150 16.02 150 36.65C150 40.17 150.51 43.56 151.45 46.78C151.68 47.56 152.44 48.05 153.24 47.97C157.24 47.58 165.29 46.72 170.16 45.75C176.8 44.42 183.02 42.47 185.19 41.76C185.71 41.59 186.27 41.59 186.79 41.76C188.99 42.47 195.38 44.46 201.86 45.76C206.75 46.74 214.84 47.6 218.82 47.99C219.63 48.07 220.39 47.58 220.62 46.8C221.89 42.47 222.38 37.81 221.89 32.96C220.11 15.53 205.72 1.71999 188.24 0.679991Z" fill="#2B2C30"/>
<path d="M210.12 65.07C207.49 64.72 204.51 64.27 201.86 63.74C195.14 62.39 188.54 60.3 186.6 59.66C186.23 59.54 185.83 59.54 185.46 59.66C183.51 60.3 176.89 62.4 170.16 63.74C167.51 64.27 164.54 64.72 161.9 65.07C160.97 65.19 160.28 65.98 160.28 66.92V69.33C160.28 70.46 161.27 71.33 162.39 71.18C165.02 70.82 167.92 70.39 170.36 69.9C177.17 68.55 183.52 66.51 185.43 65.87C185.81 65.74 186.2 65.74 186.58 65.87C188.49 66.51 194.84 68.55 201.65 69.9C204.09 70.38 206.99 70.82 209.62 71.18C210.74 71.33 211.73 70.46 211.73 69.33V66.92C211.74 65.99 211.05 65.2 210.12 65.07Z" fill="#2B2C30"/>
</svg>
