<svg width="144" height="41" viewBox="0 0 144 41" fill="none" xmlns="http://www.w3.org/2000/svg">
<g clip-path="url(#clip0_3842_38753)">
<path d="M43.4248 4.33622L38.666 3.71101C37.7558 3.6228 36.8383 3.77383 36.0044 4.14915L14.0155 14.4642C13.9534 14.4959 13.9053 14.5498 13.8809 14.6151C13.8565 14.6805 13.8575 14.7526 13.8836 14.8173C13.9098 14.882 13.9593 14.9346 14.0223 14.9646C14.0853 14.9946 14.1572 14.9999 14.2239 14.9795L43.4855 4.87609H43.5036C43.5599 4.85219 43.6068 4.81045 43.637 4.75729C43.6673 4.70413 43.6792 4.6425 43.671 4.58188C43.6628 4.52127 43.6349 4.46503 43.5916 4.42183C43.5483 4.37862 43.492 4.35085 43.4314 4.34278" fill="#58595C"/>
<path d="M33.8417 1.01146L0.656597 5.14667C0.627814 5.14969 0.599623 5.15688 0.572908 5.168C0.515786 5.19255 0.468852 5.23601 0.43999 5.29108C0.428953 5.31121 0.420674 5.33273 0.415376 5.35507C0.405487 5.39606 0.405487 5.4388 0.415376 5.47979C0.418894 5.4991 0.424964 5.51786 0.433426 5.53558C0.451535 5.576 0.479116 5.61146 0.513833 5.63896C0.537412 5.65716 0.563359 5.67206 0.590958 5.68326C0.6149 5.69142 0.639662 5.69692 0.664802 5.69967L6.30642 6.25104C6.33092 6.25431 6.35575 6.25431 6.38026 6.25104L33.9237 1.56282C33.9452 1.55931 33.9661 1.55325 33.9861 1.54477C34.048 1.51834 34.0982 1.47044 34.1275 1.4099C34.1569 1.34937 34.1633 1.28027 34.1458 1.21533C34.1282 1.1504 34.0877 1.09401 34.0318 1.05654C33.976 1.01908 33.9084 1.00307 33.8417 1.01146Z" fill="#58595C"/>
<path d="M35.4135 24.8777L17.468 26.2955C17.3996 26.3029 17.3364 26.3353 17.2905 26.3865C17.2446 26.4377 17.2192 26.504 17.2192 26.5728C17.2192 26.6416 17.2446 26.7079 17.2905 26.7591C17.3364 26.8102 17.3996 26.8427 17.468 26.8501L23.1834 27.4048C23.2074 27.4081 23.2317 27.4081 23.2556 27.4048L35.4857 25.4356C35.5077 25.4323 35.5292 25.4263 35.5497 25.4176C35.6108 25.3917 35.6606 25.345 35.6903 25.2857C35.7201 25.2265 35.7277 25.1586 35.7119 25.0942C35.6961 25.0298 35.6579 24.9731 35.6041 24.9344C35.5503 24.8956 35.4845 24.8772 35.4184 24.8826" fill="#58595C"/>
<path d="M17.1694 23.7896C17.0342 23.7723 16.9047 23.7243 16.7909 23.6492C16.6771 23.5741 16.5821 23.474 16.513 23.3564L13.5937 18.7617C13.571 18.726 13.5404 18.6959 13.5043 18.6737C13.4682 18.6515 13.4275 18.6379 13.3853 18.6338L7.71253 18.066C7.59159 18.0559 7.47022 18.0796 7.36191 18.1343C7.25361 18.1891 7.1626 18.2728 7.09902 18.3762C7.03543 18.4796 7.00174 18.5985 7.00171 18.7199C7.00167 18.8413 7.03529 18.9603 7.09881 19.0637L9.60948 23.02C9.72472 23.2097 9.88175 23.3705 10.0686 23.4902C10.2554 23.6099 10.4671 23.6854 10.6876 23.7109L17.1021 24.3377C17.148 24.3416 17.1942 24.3343 17.2367 24.3164C17.294 24.2923 17.3416 24.2498 17.372 24.1955C17.4024 24.1412 17.4138 24.0784 17.4044 24.0169C17.3949 23.9554 17.3652 23.8989 17.32 23.8562C17.2747 23.8135 17.2165 23.7872 17.1546 23.7814" fill="#FFFCFA"/>
<path d="M26.019 30.5456C25.8818 30.5281 25.7502 30.4796 25.6345 30.4037C25.5188 30.3278 25.4219 30.2265 25.3512 30.1075L23.3935 26.9798C23.3709 26.9435 23.3402 26.9128 23.3037 26.8904C23.2673 26.8679 23.2261 26.8541 23.1835 26.8502L17.5156 26.2955C17.3951 26.2859 17.2744 26.3097 17.1666 26.3643C17.0588 26.419 16.9682 26.5023 16.9047 26.6051C16.8412 26.7079 16.8074 26.8263 16.8069 26.9471C16.8064 27.068 16.8393 27.1866 16.9019 27.29L18.4575 29.7727C18.5723 29.965 18.7299 30.1283 18.918 30.2498C19.1061 30.3713 19.3197 30.4478 19.5422 30.4734L25.9649 31.1003C26.0112 31.1054 26.0581 31.0986 26.1011 31.0806C26.1461 31.0599 26.1849 31.0279 26.2137 30.9876C26.2425 30.9473 26.2603 30.9001 26.2652 30.8508C26.2688 30.8143 26.2652 30.7774 26.2545 30.7423C26.2439 30.7071 26.2264 30.6745 26.203 30.6461C26.1797 30.6178 26.151 30.5943 26.1186 30.577C26.0862 30.5598 26.0507 30.5491 26.0141 30.5456" fill="#FFFCFA"/>
<path d="M27.4927 40.4404C27.4725 40.4328 27.4557 40.4183 27.4451 40.3994L23.3312 33.9603C23.3086 33.925 23.2782 33.8952 23.2424 33.8734C23.2066 33.8515 23.1662 33.838 23.1245 33.8339L17.4648 33.2793C17.3437 33.2694 17.2223 33.2932 17.114 33.3482C17.0057 33.4031 16.9147 33.4871 16.8513 33.5907C16.7878 33.6942 16.7544 33.8134 16.7546 33.9349C16.7549 34.0563 16.7888 34.1753 16.8527 34.2786L20.5531 40.0696C20.6027 40.152 20.6708 40.2217 20.7519 40.2732C20.8331 40.3248 20.9251 40.3567 21.0208 40.3666L27.4041 40.9902C27.4504 40.9946 27.4971 40.9879 27.5403 40.9705C27.5832 40.9513 27.6206 40.9217 27.6492 40.8845C27.6779 40.8473 27.6968 40.8035 27.7044 40.7572C27.7152 40.6867 27.6989 40.6148 27.6587 40.556C27.6184 40.4972 27.5573 40.4559 27.4878 40.4404" fill="#FFFCFA"/>
<path d="M11.3933 12.6082C11.2594 12.5913 11.1309 12.5446 11.0173 12.4717C10.9038 12.3987 10.808 12.3013 10.7369 12.1865L6.56393 5.81794C6.54092 5.78307 6.51042 5.75378 6.47465 5.73221C6.43888 5.71063 6.39874 5.69731 6.35717 5.69323L0.715557 5.14843C0.594025 5.13848 0.472124 5.16258 0.363522 5.21803C0.25492 5.27348 0.16391 5.35808 0.100698 5.46236C0.0374857 5.56663 0.00456964 5.68645 0.00564056 5.80839C0.00671147 5.93032 0.041727 6.04955 0.106761 6.1527L3.85143 11.8649C3.96843 12.0498 4.12544 12.2061 4.3109 12.3223C4.49636 12.4384 4.70552 12.5115 4.92297 12.536L11.3391 13.1629C11.385 13.1668 11.4312 13.1595 11.4737 13.1415C11.531 13.1175 11.5787 13.0749 11.6091 13.0206C11.6394 12.9664 11.6508 12.9035 11.6414 12.842C11.632 12.7806 11.6023 12.724 11.557 12.6814C11.5118 12.6387 11.4536 12.6124 11.3916 12.6066" fill="#FFFCFA"/>
<path d="M43.8433 4.52653C43.7572 4.44047 43.6485 4.38049 43.5298 4.3535C43.411 4.3265 43.2871 4.33358 43.1722 4.37392L14.0747 14.4396C13.8521 14.5203 13.6643 14.6756 13.5433 14.8792C13.4223 15.0828 13.3757 15.3221 13.4113 15.5562C13.4469 15.7903 13.5626 16.0049 13.7386 16.1633C13.9146 16.3217 14.1401 16.4143 14.3766 16.4251L18.9992 16.5679L38.7268 17.5229C39.0047 17.5339 39.2797 17.4632 39.5178 17.3194C39.8595 17.1069 40.1175 16.7829 40.248 16.4021L44.0025 5.19604C44.0415 5.08038 44.0468 4.956 44.0177 4.83745C43.9887 4.7189 43.9265 4.61106 43.8384 4.52653" fill="#2B2C30"/>
<path d="M31.8495 19.7676L13.4872 18.6337C13.425 18.6298 13.3628 18.6431 13.3077 18.6723C13.2526 18.7014 13.2066 18.7453 13.1748 18.7989C13.143 18.8526 13.1267 18.914 13.1277 18.9764C13.1287 19.0388 13.1469 19.0996 13.1803 19.1523L16.0389 23.6551C16.1829 23.899 16.3971 24.094 16.6535 24.2146C16.9099 24.3352 17.1966 24.3758 17.4764 24.3311L31.9628 21.7975C32.0449 21.7828 32.1253 21.7591 32.2023 21.7269C32.4113 21.6333 32.583 21.4723 32.6899 21.2698C32.7968 21.0672 32.8328 20.8347 32.7922 20.6093C32.7516 20.3839 32.6367 20.1786 32.4659 20.026C32.2951 19.8735 32.0781 19.7825 31.8495 19.7676Z" fill="#2B2C30"/>
<path d="M35.8157 25.0337C35.7641 24.9741 35.6981 24.9287 35.624 24.902C35.5498 24.8753 35.4701 24.868 35.3923 24.8811L23.113 26.8502C23.067 26.8576 23.0236 26.8765 22.9869 26.9052C22.9501 26.9339 22.9213 26.9714 22.903 27.0143C22.8843 27.0565 22.8762 27.1026 22.8793 27.1486C22.8825 27.1947 22.8968 27.2392 22.921 27.2785L24.8787 30.4062C25.0121 30.6322 25.2051 30.8172 25.4367 30.9408C25.6683 31.0644 25.9294 31.1219 26.1915 31.1069L33.3575 30.5768C33.509 30.5659 33.6576 30.5298 33.7973 30.4702C33.8613 30.4436 33.9233 30.4124 33.9827 30.3766C34.3248 30.1626 34.5822 29.8367 34.7113 29.4544L35.9092 25.4767C35.9322 25.4014 35.9356 25.3214 35.9189 25.2444C35.9023 25.1675 35.8662 25.096 35.814 25.0369" fill="#2B2C30"/>
<path d="M29.9657 34.5314C29.9266 34.4722 29.8745 34.4228 29.8133 34.3869C29.7522 34.3511 29.6836 34.3297 29.6128 34.3246L23.1179 33.8323C23.0663 33.8285 23.0146 33.839 22.9686 33.8629C22.9226 33.8867 22.8842 33.9229 22.8576 33.9674C22.8311 34.0118 22.8174 34.0628 22.8181 34.1146C22.8189 34.1664 22.8341 34.217 22.8619 34.2606L26.9742 40.6981C27.0505 40.8245 27.1696 40.9194 27.31 40.9655C27.4503 41.0115 27.6025 41.0058 27.7389 40.9492C27.7665 40.9371 27.7933 40.9234 27.8193 40.9081C27.9618 40.821 28.0688 40.6861 28.1212 40.5274L30.0182 34.935C30.0412 34.868 30.0484 34.7965 30.0393 34.7263C30.0302 34.656 30.005 34.5887 29.9657 34.5297" fill="#2B2C30"/>
<path d="M34.7705 1.58754C34.713 1.3922 34.5849 1.22522 34.4111 1.11907C34.2373 1.01292 34.0303 0.975189 33.8302 1.01321L6.28673 5.6965C6.241 5.70391 6.19785 5.72265 6.16122 5.75101C6.12459 5.77938 6.09566 5.81647 6.07705 5.8589C6.05845 5.90133 6.05077 5.94775 6.05472 5.99391C6.05867 6.04007 6.07412 6.0845 6.09966 6.12315L10.2726 12.4868C10.4464 12.7738 10.7173 12.9889 11.0362 13.0931C11.3551 13.1973 11.7007 13.1836 12.0104 13.0546L12.0563 13.0332L34.3258 2.59673C34.512 2.51383 34.6608 2.36456 34.743 2.178C34.8252 1.99143 34.835 1.78094 34.7705 1.58754Z" fill="#2B2C30"/>
<path d="M52.9375 34.579C53.2657 32.1553 53.5939 29.8793 53.904 27.6049L53.9385 27.321L53.7843 27.5278L50.5023 31.9452L48.4905 27.5671L48.3773 27.3112L48.3478 27.5639C48.0196 29.8842 47.6864 32.2072 47.3484 34.533H42.4255C42.5568 33.5484 42.6766 32.6065 42.8079 31.6695C43.2411 28.5878 43.7088 25.5094 44.1026 22.4227C44.2913 20.9344 45.2267 20.1172 46.6362 20.2074L49.5063 20.2255H49.7508C50.2978 21.6783 50.8808 23.2235 51.5 24.8612L54.5489 20.2501H59.8952L59.8279 20.7539C59.4188 23.6693 59.0085 26.5853 58.5972 29.5018C58.4544 30.5012 58.3002 31.4989 58.164 32.4999C57.9753 33.8766 57.2352 34.556 55.8666 34.5691C54.9165 34.5691 53.9648 34.5691 52.9342 34.5691" fill="#2B2C30"/>
<path d="M99.1369 34.5643C98.0784 32.1783 97.0364 29.8252 95.9944 27.472L95.9025 27.2538L95.873 27.4753C95.5448 29.8104 95.1986 32.1455 94.8556 34.5314H90L90.1165 33.7306C90.5267 30.7857 90.9408 27.8412 91.3587 24.8974C91.4933 23.9522 91.6229 23.007 91.7772 22.0667C91.9724 20.8787 92.7125 20.242 93.9104 20.2256C94.895 20.2108 97.2875 20.2256 97.2875 20.2256C98.2278 22.5016 99.1976 24.8334 100.153 27.1422L100.279 27.4573L100.333 27.1192C100.653 24.8596 100.973 22.5541 101.293 20.306H106.136C105.957 21.6286 105.779 22.9528 105.594 24.2771C105.225 26.9157 104.852 29.5544 104.475 32.1931C104.444 32.5 104.389 32.8039 104.311 33.1022C104.053 33.9226 103.471 34.4773 102.617 34.5364C101.469 34.6151 100.32 34.556 99.1385 34.556" fill="#2B2C30"/>
<path d="M74.6423 34.5446C75.2987 29.8433 75.9551 25.0549 76.6246 20.329C78.1015 20.0353 80.4743 19.9483 80.9551 19.9302C81.2029 19.9204 83.4428 19.9056 84.6423 20.242C85.4541 20.4544 86.2363 20.7669 86.9709 21.1724C88.725 22.1898 89.6309 23.7816 89.7835 25.7917C89.8759 26.8288 89.796 27.874 89.5472 28.8849C89.3122 29.8436 88.8765 30.7415 88.2689 31.5194C87.6613 32.2973 86.8956 32.9374 86.0224 33.3976C84.6965 34.1294 83.2574 34.5036 81.7756 34.7103C79.4996 35.0172 77.2252 34.8744 74.9574 34.5889L74.6423 34.5446ZM81.4228 23.8964C81.1044 26.2578 80.7319 28.478 80.4743 30.7802C81.9298 30.836 83.0998 30.5226 83.8186 29.2738C84.4799 28.1459 84.6692 26.8025 84.3453 25.5357C84.1402 24.6989 83.6118 24.1459 82.7602 23.9736C82.3565 23.8915 81.9298 23.921 81.4162 23.8964" fill="#2B2C30"/>
<path d="M118.871 20.3634C118.689 21.6204 118.505 22.8938 118.308 24.2459H112.156C112.117 24.6693 112.084 25.0155 112.043 25.4536H117.329L116.836 29.2393H111.48C111.416 29.6922 111.365 30.05 111.301 30.5111H117.373C117.332 31.5613 117.269 32.5114 116.915 33.3893C116.61 34.1474 115.955 34.5495 115.11 34.5675C114.349 34.5839 113.589 34.5675 112.827 34.5675H105.583C105.688 33.7274 105.775 32.9594 105.883 32.1931C106.32 29.0796 106.758 25.9684 107.196 22.8593C107.243 22.5311 107.287 22.1914 107.36 21.8616C107.558 20.9246 108.293 20.2206 109.247 20.2206C112.401 20.1993 115.738 20.2206 118.892 20.2288L118.871 20.3634Z" fill="#2B2C30"/>
<path d="M68.9024 34.5626C68.7957 33.7766 68.6972 33.0365 68.5906 32.2488H64.5669C64.2748 32.9758 63.9729 33.7257 63.6529 34.5249H58.3313L58.6365 33.9128C60.5433 29.8793 62.4731 25.8573 64.3471 21.8091C64.8771 20.6604 65.6598 20.2009 66.9217 20.2058L70.5532 20.2173H71.413C71.6805 21.5875 71.9348 22.8757 72.1826 24.1655C72.6662 26.6718 73.147 29.1775 73.625 31.6827C73.6896 31.9843 73.7242 32.2916 73.7284 32.6C73.7169 33.6059 72.9785 34.4805 71.9824 34.5478C70.9864 34.6151 69.9657 34.5626 68.9024 34.5626ZM68.1853 28.7864C68.0212 27.3867 67.8669 26.0788 67.7143 24.7694L67.6651 24.4576L67.5535 24.7513L65.9453 28.7864H68.1853Z" fill="#2B2C30"/>
<path d="M118.037 33.7749C118.297 33.0299 118.49 32.3555 118.764 31.7172C119.199 30.708 120.158 30.2731 121.282 30.5816C122.176 30.8387 123.107 30.9441 124.037 30.8934C124.365 30.8737 124.728 30.9049 124.924 30.5439C124.972 30.2058 124.739 30.0877 124.491 30.0138C124.06 29.8891 123.615 29.8071 123.187 29.6758C122.535 29.5003 121.897 29.281 121.275 29.0194C120.082 28.4648 119.452 27.4851 119.322 26.1773C119.066 23.6092 120.307 21.5317 122.688 20.5422C123.841 20.077 125.081 19.866 126.323 19.9236C127.759 19.9785 129.183 20.2122 130.561 20.6194C130.706 20.6724 130.848 20.7349 130.985 20.8064C130.535 22.0979 130.097 23.363 129.65 24.6463C128.809 24.4313 128.01 24.177 127.189 24.0358C126.548 23.9506 125.901 23.9188 125.254 23.9407C124.875 23.9407 124.875 23.9718 124.424 24.4428C124.683 24.6069 124.916 24.8169 125.172 24.9105C125.62 25.0746 126.098 25.1451 126.559 25.2698C126.938 25.3732 127.319 25.4766 127.686 25.6161C129.414 26.2725 130.277 27.4999 130.327 29.3411C130.382 31.5071 129.321 33.194 127.338 34.0998C126.381 34.5157 125.358 34.7585 124.316 34.8169C122.167 34.9863 120.01 34.6263 118.032 33.7684" fill="#2B2C30"/>
<path d="M130.44 33.7651C130.665 33.094 130.842 32.5065 131.06 31.9355C131.515 30.7458 132.453 30.2502 133.686 30.5849C134.634 30.8573 135.623 30.9568 136.607 30.8787C136.912 30.8524 137.242 30.8393 137.32 30.4291C137.194 29.9909 136.782 29.9745 136.447 29.8793C135.909 29.7152 135.35 29.6381 134.807 29.4855C132.371 28.7996 131.244 27.2095 131.805 24.3198C132.133 22.6345 133.185 21.4694 134.71 20.7097C136.001 20.0713 137.388 19.8678 138.812 19.9253C140.19 19.9888 141.555 20.2135 142.88 20.5948C143.048 20.6549 143.213 20.7256 143.372 20.8065C142.921 22.1028 142.48 23.3664 142.033 24.6447C141.213 24.433 140.445 24.1819 139.657 24.0506C138.99 23.9573 138.316 23.9221 137.642 23.9456C137.394 23.9456 137.15 24.0982 136.945 24.1655C136.884 24.7087 137.219 24.8055 137.501 24.8941C137.982 25.0451 138.486 25.1288 138.968 25.2748C139.51 25.4195 140.042 25.6026 140.558 25.8229C141.838 26.4186 142.527 27.4638 142.675 28.8504C142.949 31.3546 141.758 33.3024 139.406 34.2361C138.329 34.6458 137.188 34.8581 136.036 34.8629C134.401 34.9077 132.772 34.645 131.234 34.0884C131.001 34.0031 130.775 33.8997 130.448 33.7602" fill="#2B2C30"/>
<path d="M140.678 14.7103L139.49 14.6988L139.685 13.5009L143.912 13.4878L143.733 14.7087L142.383 14.7185L141.989 17.8478H140.258C140.33 17.3375 140.678 14.7103 140.678 14.7103Z" fill="#2B2C30"/>
<path d="M92.437 17.8396C92.6372 16.4202 92.8358 14.9745 93.036 13.5469C93.4698 13.4731 93.9087 13.4331 94.3487 13.4271C94.7223 13.3995 95.0979 13.4316 95.4613 13.5222C95.7051 13.5847 95.94 13.6779 96.1603 13.7996C96.4096 13.9395 96.6186 14.1411 96.7675 14.385C96.9163 14.629 97 14.9071 97.0104 15.1927C97.0382 15.5058 97.0138 15.8214 96.9382 16.1264C96.8678 16.4162 96.7365 16.6876 96.5532 16.9227C96.3699 17.1578 96.1386 17.3512 95.8748 17.4901C95.4756 17.6994 95.0411 17.8329 94.5932 17.8839C93.9081 17.9614 93.2158 17.9492 92.5338 17.8478L92.437 17.8396ZM94.4849 14.62C94.3881 15.3322 94.2749 16.0034 94.1978 16.6975C94.6375 16.7156 94.992 16.6204 95.207 16.243C95.4084 15.903 95.4674 15.4972 95.371 15.114C95.3486 14.9963 95.2909 14.8883 95.2056 14.8042C95.1203 14.7201 95.0115 14.6639 94.8935 14.643C94.7592 14.6254 94.6237 14.6177 94.4882 14.62" fill="#2B2C30"/>
<path d="M108.96 13.4976H110.715C110.601 14.3837 110.489 15.2419 110.374 16.1329C110.363 16.2177 110.386 16.3033 110.437 16.3716C110.489 16.4399 110.564 16.4855 110.649 16.4988C110.733 16.512 110.819 16.4918 110.889 16.4425C110.959 16.3932 111.007 16.3186 111.022 16.2347C111.186 15.3289 111.301 14.4296 111.47 13.5123H113.2C113.159 13.8274 113.133 14.1195 113.082 14.4066C112.955 15.1221 112.898 15.8425 112.729 16.5399C112.653 16.8738 112.479 17.1773 112.229 17.4112C111.979 17.6452 111.664 17.7989 111.326 17.8527C110.868 17.9522 110.395 17.9666 109.931 17.8953C109.111 17.7952 108.471 17.275 108.541 16.4529C108.623 15.4815 108.81 14.5182 108.96 13.4992" fill="#2B2C30"/>
<path d="M128.533 13.6847C128.344 14.1147 128.187 14.4675 128.016 14.8547C127.37 14.8104 126.621 14.5692 126.129 15.1632V15.1731C125.691 15.7129 125.922 16.5006 126.613 16.5728C126.974 16.5981 127.337 16.5893 127.696 16.5466L127.619 17.7494C126.883 17.9956 126.09 18.0082 125.346 17.7855C124.473 17.5032 124.176 16.8009 124.134 16.0329C124.134 14.625 124.903 13.6978 126.392 13.4074C127.102 13.2728 127.777 13.3976 128.541 13.6765" fill="#2B2C30"/>
<path d="M81.2587 15.1451C81.2095 14.6052 80.9896 14.085 80.5038 13.8028C78.7694 12.7985 76.2472 13.8832 76.2062 16.0066C76.1635 17.6328 77.7273 18.1661 79.0975 17.9396C79.7422 17.8308 80.3223 17.4835 80.7226 16.9666C81.123 16.4498 81.3144 15.8014 81.2587 15.15M79.347 16.023C79.1304 16.4956 78.6906 16.7105 78.3509 16.5678C78.0112 16.425 77.9079 15.8999 78.1245 15.4191C78.3411 14.9383 78.6643 14.6643 79.1353 14.8464C79.58 15.0105 79.5636 15.5405 79.347 16.0148" fill="#2B2C30"/>
<path d="M60.4744 17.9019C60.7139 16.425 60.9388 14.9613 61.1668 13.5484C61.1668 13.5484 62.9604 13.5255 63.5905 13.5632C64.0529 13.5857 64.4904 13.7793 64.818 14.1064C64.9277 14.2283 65.0109 14.3717 65.0623 14.5274C65.1138 14.6832 65.1324 14.8479 65.117 15.0112C65.1016 15.1745 65.0525 15.3329 64.9727 15.4762C64.893 15.6196 64.7845 15.7449 64.6539 15.8441C64.5238 15.9269 64.383 15.9915 64.2354 16.0361C64.7277 16.4743 64.8623 17.234 64.8196 17.8953L63.2131 17.9167C63.2131 17.5294 63.1836 16.9928 62.8045 16.7335C62.6899 16.641 62.5481 16.5886 62.4008 16.5842L62.1711 17.9068L60.4744 17.9019ZM62.5846 15.4175C63.1212 15.4175 63.3395 15.296 63.3362 15.045C63.3371 14.9658 63.3094 14.889 63.2581 14.8287C63.2068 14.7684 63.1355 14.7287 63.0572 14.7168C62.9358 14.7168 62.8012 14.7037 62.6765 14.7037L62.5846 15.4175Z" fill="#2B2C30"/>
<path d="M48.2444 13.5601C47.8276 13.4928 45.6402 13.5486 45.6402 13.5486C45.4137 14.9696 45.1873 16.3891 44.946 17.9053H46.587L46.8249 16.7419C47.1149 16.7527 47.4051 16.7488 47.6947 16.7304C48.2411 16.6647 48.6792 16.499 49.0386 16.074C49.6835 15.329 49.4538 13.7504 48.2411 13.5535M47.821 15.0435C47.734 15.4143 47.606 15.4143 47.0694 15.4143L47.1613 14.6972C47.2861 14.6972 47.4206 14.6972 47.542 14.7104C47.5824 14.7121 47.622 14.7222 47.6584 14.7399C47.6947 14.7577 47.727 14.7828 47.7531 14.8136C47.7793 14.8444 47.7989 14.8803 47.8106 14.919C47.8222 14.9577 47.8258 14.9984 47.821 15.0386" fill="#2B2C30"/>
</g>
<defs>
<clipPath id="clip0_3842_38753">
<rect width="144" height="41" fill="white"/>
</clipPath>
</defs>
</svg>
