<?xml version="1.0" encoding="utf-8"?>
<!-- Generator: Adobe Illustrator 27.8.1, SVG Export Plug-In . SVG Version: 6.00 Build 0)  -->
<svg version="1.1" id="Layer_1" xmlns="http://www.w3.org/2000/svg" xmlns:xlink="http://www.w3.org/1999/xlink" x="0px" y="0px"
	 viewBox="0 0 192.5 72.2" style="enable-background:new 0 0 192.5 72.2;" xml:space="preserve">
<style type="text/css">
	.st0{fill:#2C2C30;}
</style>
<g>
	<g>
		<path class="st0" d="M58,62.9c1.6,1.3,3.3,1,4.8-0.1c0.9-0.7,1.7-1.4,2.6-2.1c2.2-1.7,6.4-1.6,8.9,0.9c1.1,1.1,2.2,2.3,4,2.3
			c0.2,0,0.7,0.6,0.6,0.8c-0.1,0.4-0.5,1-0.8,1c-0.7,0.1-1.4-0.1-2-0.4C75,64.7,73.9,64,73,63.1c-2.3-2.3-4.8-2.3-7.3,0
			c-1.4,1.3-3.1,2.4-5.1,2.6c-1,0.1-2.1-0.2-2.9-0.6c-1.3-0.7-2.5-1.7-3.7-2.6c-1.9-1.4-3.9-1.4-5.8,0.1c-1,0.8-2,1.5-3.1,2.2
			C43.5,66,41.7,66,39.9,65c-1.5-0.9-2.9-1.9-4.3-3c-1.1-0.8-3.2-0.7-4.3,0.1c-1.3,1-2.6,1.9-4,2.7c-1.8,1-3.6,1-5.4,0
			c-1.4-0.8-2.8-1.7-4.1-2.7c-2.2-1.8-2.1-1.6-4.7-0.1c-1.9,1.1-3.8,2.3-5.7,3.3c-0.8,0.4-1.7,0-1.8-0.7c-0.2-0.9,0.6-1,1.1-1.3
			c0.7-0.3,1.5-0.6,2.1-1.1c1.3-0.8,2.5-1.7,3.8-2.5c-0.5-1.1-1.1-2.1-1.6-3.2c-0.7-1.4-0.6-1.6,0.9-1.8c2.1-0.2,4.3-0.3,6.4-0.4
			c3.6-0.3,7.1-0.6,10.7-0.8c1.3-0.1,2.6-0.1,3.9-0.2c2.9-0.2,5.8-0.4,8.7-0.6c1.4-0.1,2.8-0.2,4.1-0.2c2.8-0.2,5.7-0.3,8.5-0.4
			c3.5-0.2,7-0.6,10.6-0.8c2.9-0.2,5.9-0.3,8.8-0.4c0.3,0,1,0.3,1,0.4c0,0.5-0.1,1.1-0.5,1.4c-2.9,2.1-5.8,4.3-8.8,6.3
			c-2,1.3-4.2,2.3-6.3,3.4C58.8,62.5,58.4,62.7,58,62.9L58,62.9z M13.6,56.6c0.3,1.7,0.8,2.1,2.3,2.3c0.6,0.1,1.3,0.3,1.8,0.6
			c1.3,0.8,2.4,1.8,3.6,2.7c2.1,1.6,4,1.7,5.8,0.4c0.8-0.6,1.7-1.1,2.4-1.8c2.1-2,6-1.8,7.9-0.2c0.6,0.5,1.2,1,1.8,1.5
			c2,1.7,3.7,1.9,5.7,0.4c0.6-0.4,1.2-0.9,1.7-1.4c2.3-2.3,6.6-2.2,8.6-0.5c0.7,0.6,1.3,0.6,2,0.2c2.7-1.5,5.5-2.9,8.1-4.4
			c1.6-0.9,3.1-2.1,4.6-3.2c-0.9-0.2-1.8-0.3-2.6-0.2c-3.5,0.3-7,0.6-10.6,0.8c-3.2,0.2-6.3,0.4-9.5,0.6c-3.3,0.2-6.6,0.4-10,0.6
			c-3.8,0.2-7.6,0.4-11.3,0.6c-3,0.2-5.9,0.3-8.9,0.4C15.9,56.4,14.8,56.5,13.6,56.6L13.6,56.6z"/>
		<path class="st0" d="M35.5,46.4c-3.5-0.2-6.9,0.3-10.1,1.5c-2.7,1-5.4,2.4-8,3.6c-0.6,0.3-1.2,0.7-1.7,0c-0.5-0.7-0.1-1.2,0.4-1.7
			c2.9-3.4,4.8-7.3,5.7-11.6c0.7-3.4,1-6.8,1.1-10.3c0-4.4-1-8.7-2.7-12.8c-1.1-2.5-2.2-4.9-3.3-7.4c-0.2-0.5-0.6-0.9-0.8-1.5
			c-0.1-0.4-0.2-1.2,0-1.3c0.4-0.2,1.1-0.3,1.5-0.1c3.5,1.6,6.8,3.5,9.9,5.7c3.9,2.7,7.5,5.7,10.7,9.1c3.2,3.5,6.2,7.2,8.4,11.4
			c1.5,2.8,3,5.7,4.2,8.6c1.2,2.9,2.3,5.8,2.4,9c0,1.1-0.5,1.5-1.6,1c-3.5-1.5-7.2-2.5-11-3C38.9,46.5,37.2,46.5,35.5,46.4
			L35.5,46.4z M20.5,47.4c10-4.6,20.1-3.6,30.3-0.3c-1.9-8.9-6-16.3-11.5-23C33.9,17.4,27.2,12,19.3,8
			C26.9,23.3,26.4,35.5,20.5,47.4L20.5,47.4z"/>
		<path class="st0" d="M66.6,49.7c-2.3-1.2-4.6-2-7.3-1.7c-0.1,0-0.2,0-0.3,0c-1.9,0.1-1.9,0.1-2.5-1.6c-1.6-4.8-3.2-9.5-5.6-14
			c-2-3.9-4.1-7.7-7-11c-2.3-2.6-4.8-5.1-7.7-6.9c-0.2-0.2-0.6-0.3-0.6-0.5c-0.2-0.4-0.2-0.9-0.2-1.3c0-0.2,0.6-0.3,0.9-0.3
			c2-0.1,3.5,1,5.1,1.9c5.1,2.9,9.1,7.1,13.1,11.2c3,3.1,5.4,6.8,7.5,10.6c2,3.8,4,7.6,5.2,11.7C67.6,48.8,67.6,48.9,66.6,49.7
			L66.6,49.7z M46,20.2c0.1,0.2,0.2,0.5,0.3,0.7c1.8,2.8,3.8,5.4,5.3,8.4c2.7,5.1,5.1,10.4,6.6,16c0.2,0.8,0.7,0.8,1.3,0.8
			c0.9,0,1.7-0.1,2.6,0c0.7,0.1,1.5,0.3,2.2,0.4C64.6,41.7,52.8,24.6,46,20.2L46,20.2z"/>
	</g>
	<g>
		<path class="st0" d="M88,37.3h4.6l2.1,7.1c0.1,0.3,0.2,0.6,0.2,0.9c0,0.3,0.1,0.7,0.1,1.1c0-0.4,0.1-0.8,0.1-1.2
			c0.1-0.4,0.1-0.7,0.2-0.9l2.1-7.1h4.5v11.9h-2.8v-8c0-0.4,0-0.8,0-1.2c0-0.4,0.1-0.8,0.1-1.3c-0.1,0.4-0.2,0.7-0.2,1
			c-0.1,0.3-0.2,0.6-0.3,0.9l-2.5,8.5h-2.7L91,40.8c-0.1-0.3-0.2-0.6-0.2-1c-0.1-0.3-0.2-0.7-0.2-1.1c0,0.6,0.1,1.1,0.1,1.5
			c0,0.5,0,0.8,0,1v7.9H88L88,37.3L88,37.3z"/>
		<path class="st0" d="M105.7,36.2c1.3,0,1.6,0.6,1.6,1.4l0,0c0,0.8-0.6,1.4-1.6,1.4c-1.2,0-1.7-0.6-1.7-1.4l0,0
			C104.1,36.8,104.7,36.2,105.7,36.2z"/>
		<path class="st0" d="M122.1,36.2c1.3,0,1.6,0.6,1.6,1.4l0,0c0,0.8-0.6,1.4-1.6,1.4c-1.2,0-1.7-0.6-1.7-1.4l0,0
			C120.5,36.8,121.1,36.2,122.1,36.2z"/>
		<rect x="104.3" y="40.4" class="st0" width="2.9" height="8.8"/>
		<path class="st0" d="M115.4,36.4h2.9v12.8h-2.1l-0.5-1.8c-0.3,0.6-0.7,1.1-1.3,1.4c-0.5,0.3-1.1,0.5-1.8,0.5c-1.1,0-2-0.4-2.7-1.3
			s-1-2-1-3.4s0.3-2.5,1-3.3c0.7-0.8,1.6-1.2,2.7-1.2c0.6,0,1.1,0.1,1.6,0.4c0.5,0.2,0.9,0.6,1.2,1.1L115.4,36.4L115.4,36.4z
			 M113.5,42.4c-0.5,0-0.9,0.2-1.2,0.7c-0.3,0.5-0.5,1-0.5,1.7c0,0.7,0.2,1.3,0.5,1.7c0.3,0.4,0.7,0.6,1.3,0.6c0.5,0,1-0.2,1.3-0.6
			c0.3-0.4,0.5-1,0.5-1.7c0-0.7-0.2-1.3-0.5-1.7S114.1,42.4,113.5,42.4L113.5,42.4z"/>
		<path class="st0" d="M120.7,40.4h2.9v9c0,1.3-0.2,2.2-0.7,2.9c-0.5,0.6-1.3,1-2.3,1c-0.3,0-0.8,0-1.5,0v-2.2c0,0,0.2,0,0.2,0
			s0.1,0,0.2,0c0.5,0,0.8-0.1,1-0.4c0.2-0.3,0.3-0.7,0.3-1.4L120.7,40.4L120.7,40.4z"/>
		<path class="st0" d="M130.2,40.2c1.5,0,2.7,0.4,3.5,1.2c0.8,0.8,1.3,1.9,1.3,3.4c0,1.5-0.4,2.6-1.3,3.4c-0.8,0.8-2,1.2-3.5,1.2
			s-2.7-0.4-3.5-1.2s-1.3-1.9-1.3-3.4c0-1.4,0.4-2.6,1.3-3.4C127.5,40.6,128.7,40.2,130.2,40.2z M130.2,42.3c-0.5,0-1,0.2-1.3,0.7
			c-0.3,0.5-0.5,1.1-0.5,1.8c0,0.8,0.2,1.3,0.5,1.8c0.3,0.5,0.8,0.7,1.3,0.7s1-0.2,1.3-0.7c0.3-0.5,0.5-1.1,0.5-1.8
			c0-0.8-0.2-1.4-0.5-1.8C131.2,42.5,130.8,42.3,130.2,42.3L130.2,42.3z"/>
		<path class="st0" d="M137.1,40.4h2.9v4.4c0,0.7,0.1,1.2,0.3,1.5c0.2,0.3,0.6,0.5,1.1,0.5c0.5,0,0.9-0.2,1.2-0.7
			c0.3-0.5,0.4-1.1,0.4-2v-3.8h2.9v8.8h-2.2l-0.4-1.6c-0.3,0.6-0.8,1-1.3,1.3c-0.5,0.3-1.1,0.5-1.8,0.5c-1,0-1.8-0.3-2.4-1
			s-0.8-1.6-0.8-2.9L137.1,40.4L137.1,40.4z"/>
		<path class="st0" d="M154.5,40.2v2.6c-0.4-0.1-0.9-0.1-1.1-0.1c-0.7,0-1.2,0.2-1.6,0.7c-0.3,0.5-0.5,1.1-0.5,2v3.7h-2.9v-8.8h2.2
			l0.4,1.7c0.3-0.6,0.6-1.1,1.1-1.4c0.4-0.3,0.9-0.5,1.5-0.5C154,40.2,154.5,40.2,154.5,40.2L154.5,40.2z"/>
		<path class="st0" d="M165.2,44v5.1h-2.8v-4.5c0-0.7-0.1-1.2-0.3-1.5c-0.2-0.3-0.6-0.5-1.1-0.5c-0.5,0-0.9,0.2-1.2,0.6
			c-0.3,0.4-0.5,1-0.5,1.7v4.2h-2.9v-8.8h2.3L159,42c0.3-0.6,0.8-1,1.3-1.3c0.5-0.3,1.1-0.5,1.8-0.5c1,0,1.8,0.3,2.3,1
			C164.9,41.9,165.2,42.8,165.2,44L165.2,44z"/>
		<path class="st0" d="M176.2,45v0.7h-5.9c0.1,0.6,0.3,1,0.7,1.3c0.4,0.3,1,0.5,1.7,0.5c0.4,0,0.9-0.1,1.3-0.2
			c0.5-0.1,0.9-0.3,1.4-0.5v2.2c-0.5,0.2-0.9,0.3-1.5,0.4c-0.5,0.1-1,0.1-1.6,0.1c-1.5,0-2.7-0.4-3.6-1.3c-0.9-0.8-1.3-2-1.3-3.5
			c0-1.4,0.4-2.5,1.2-3.3c0.8-0.8,1.9-1.2,3.2-1.2c1.4,0,2.4,0.4,3.1,1.2C175.8,42.3,176.2,43.5,176.2,45L176.2,45z M173.6,43.9
			c-0.1-0.6-0.2-1.1-0.5-1.4c-0.3-0.3-0.7-0.5-1.1-0.5s-0.8,0.2-1.1,0.5c-0.3,0.3-0.5,0.8-0.5,1.4H173.6L173.6,43.9z"/>
		<path class="st0" d="M177.3,40.4h3.1l1.9,5.9l1.8-5.9h2.9l-3.3,8.6c-0.3,0.8-0.6,1.4-0.8,1.8c-0.2,0.4-1.3,2.3-3.4,2.3h-1.5v-2.4
			c0.3,0,0.7,0,1.2,0c0.4,0,0.7-0.1,1-0.3c0.3-0.2,0.5-0.5,0.7-0.9L177.3,40.4L177.3,40.4z"/>
	</g>
</g>
</svg>
