<svg width="71" height="29" viewBox="0 0 71 29" fill="none" xmlns="http://www.w3.org/2000/svg">
<g clip-path="url(#clip0_3842_38693)">
<path d="M29.575 14.3131C29.075 14.0131 28.575 13.9631 28.1 14.1631C27.625 14.3631 27.175 14.8381 26.85 15.5131C26.9 14.7631 26.975 14.1131 27.05 13.5381V13.5131C27.05 13.4881 27.075 13.4381 27.075 13.3881C27.075 13.3381 27.05 13.2631 27 13.2131C26.875 13.1131 26.725 13.1881 26.65 13.2131C26.225 13.3881 25.975 13.7631 25.85 14.3131C25.5 16.3381 25.25 19.9381 25.25 23.2381C25.25 24.6881 25.3 26.1131 25.4 27.2881C25.5 28.3381 26.175 28.6631 26.475 28.7381C26.55 28.7631 26.725 28.8131 26.825 28.6881C26.95 28.5881 26.925 28.4131 26.9 28.3631C26.7 26.5631 26.6 24.2381 26.6 21.4881C26.65 21.5381 26.7 21.5881 26.775 21.6381C27.3 21.9881 27.925 22.0381 28.5 21.8131C29.45 21.4381 30.2 20.3381 30.55 18.8381C31.075 16.7631 30.675 14.9631 29.575 14.3131ZM29.3 18.1381C29.05 19.4131 28.55 20.3881 27.925 20.7631C27.725 20.8881 27.525 20.9131 27.4 20.8631C26.975 20.7381 26.775 20.0381 26.825 19.0631C26.95 17.2131 27.725 15.8631 28.425 15.3381C28.625 15.1881 28.8 15.1131 28.925 15.1381C29.15 15.2131 29.625 16.4131 29.3 18.1381Z" fill="#2B2C30"/>
<path d="M45.7501 15.6632L45.2001 15.3132C42.3001 13.4882 38.7001 11.1882 38.6501 8.21317C38.6251 6.78817 39.2251 5.31317 40.2751 4.21317C41.3001 3.16317 42.6501 2.56317 44.0751 2.53817C45.1501 2.51317 46.1251 2.91317 46.9001 3.66317C47.7751 4.53817 48.2751 5.86317 48.2501 7.18817C48.2251 8.21317 47.8751 9.61317 47.1751 10.4132C46.9751 10.6382 47.0251 10.8132 47.0751 10.9132C47.2001 11.1132 47.5001 11.0882 47.6001 11.0632C48.9751 10.8632 50.0751 9.01317 50.0751 6.86317C50.0751 4.36317 48.5251 1.43817 44.1751 1.41317C42.2001 1.38817 40.2501 2.18817 38.8501 3.56317C37.5751 4.83817 36.8501 6.48817 36.8501 8.23817C36.8501 12.0882 40.4751 14.3632 43.4001 16.2132L44.6501 17.0132C46.9251 18.4882 47.9501 19.5382 47.2751 21.0882C46.7251 22.3382 44.6001 22.6132 42.9251 22.4632C41.2501 22.3132 39.1751 21.7382 38.7751 19.8132C38.7001 19.4382 38.5001 19.4132 38.4001 19.4132C38.0751 19.4382 37.9251 19.9132 37.8751 20.3132C37.8501 20.5882 37.8251 21.5882 38.6501 22.5132C39.4751 23.4632 40.8251 23.9882 42.6501 24.0632C44.6501 24.1632 47.3501 23.5882 48.4251 21.5632C49.2251 19.9882 49.5501 18.0632 45.7501 15.6632Z" fill="#2B2C30"/>
<path d="M12.75 14.8132C13.325 14.7882 13.725 14.5632 14 14.1132C14.075 14.0132 14.1 13.9382 14.1 13.8882C14.1 13.8382 14.1 13.8132 14.075 13.7632C14.025 13.6382 13.9 13.5632 13.725 13.5382C13.425 13.4882 13.075 13.4632 12.725 13.4632C12.725 8.23825 12.975 2.91325 13.3 0.438246C13.35 0.213246 13.25 0.113246 13.2 0.0632456C13.15 0.0132456 13.025 -0.0367544 12.85 0.0382456C12.15 0.313246 11.95 0.938246 11.875 1.43825C11.475 3.53825 11.125 8.31325 11.025 13.3882C8.825 13.3382 6.425 13.4382 4.525 13.6882C4.525 13.2382 4.525 12.8132 4.525 12.3632C4.525 8.21324 4.725 4.21325 5.05 2.03825V2.01325V1.98825C5.05 1.83825 5 1.71325 4.9 1.63825C4.825 1.58825 4.7 1.56325 4.55 1.63825C3.85 1.93825 3.675 2.53825 3.575 2.98825C3.125 5.13825 2.775 9.51325 2.75 13.9132C2.175 14.0132 1.675 14.1132 1.25 14.2382C0.525 14.4382 0.15 15.1882 0.025 15.8382C0.025 15.8632 0 15.9382 0 16.0132C0 16.1132 0.025 16.2132 0.125 16.3132C0.275 16.4632 0.525 16.3882 0.6 16.3632C1.15 16.1382 1.85 15.9632 2.775 15.7632C2.775 18.0632 2.875 20.0382 3.075 21.4632C3.225 22.7382 4 23.1382 4.6 23.2382C4.725 23.2632 4.875 23.2632 5 23.1382C5.075 23.0632 5.1 22.9632 5.1 22.8882C5.1 22.8382 5.1 22.8132 5.1 22.7882C4.85 21.0382 4.675 18.6882 4.575 15.4382C6.55 15.1132 8.875 14.9132 11.025 14.8382C11.025 18.0882 11.15 20.5882 11.35 22.2132C11.5 23.5132 12.225 23.9132 12.775 24.0132C12.925 24.0382 13.125 24.0382 13.225 23.9132C13.275 23.8632 13.325 23.7882 13.325 23.6632C13.325 23.6382 13.325 23.6132 13.325 23.5882C12.975 21.4632 12.8 18.3382 12.75 14.8132Z" fill="#2B2C30"/>
<path d="M68.8251 17.9881C68.0001 16.1381 67.8251 14.8131 68.3501 14.3381C68.4751 14.2631 68.5251 14.1381 68.5501 14.0131C68.5501 13.9381 68.5501 13.8381 68.4251 13.7131C68.2251 13.5131 68.0001 13.3631 67.7501 13.3631C67.5251 13.3631 67.3001 13.4381 67.1001 13.6381C66.3751 14.3131 65.8001 15.6131 65.3501 17.5881C65.3251 17.5631 65.3251 17.5631 65.3001 17.5381C65.1501 17.4881 65.0501 17.5881 65.0001 17.6381C64.8001 17.8381 64.7501 18.1381 64.7501 18.4131C64.7501 18.6631 64.8001 18.8631 64.8251 18.9631C64.8751 19.1381 64.9251 19.2881 64.9501 19.4381C64.9251 19.4881 64.9001 19.6131 64.9001 19.6131C64.8751 19.7131 64.8251 19.8381 64.8001 19.9381C64.5001 20.5131 64.1501 20.8631 63.8501 21.0131C63.6501 21.1381 63.4501 21.1631 63.3001 21.1131C62.9501 21.0131 62.5001 20.2381 62.3001 19.0631C63.3501 18.4881 64.0751 17.5381 64.3001 16.4381C64.3501 16.2131 64.3751 15.9881 64.3751 15.7881C64.3751 15.0631 64.1501 14.3881 63.7001 13.8881C63.3501 13.4881 62.9501 13.2881 62.5501 13.2631C62.1501 13.2631 61.7501 13.4381 61.4251 13.7881C61.2251 14.0131 60.8001 14.5381 60.4501 15.4881C60.5001 12.3381 60.8001 9.26314 61.1001 7.26314V7.28814C61.1501 7.13814 61.1001 7.03814 61.0501 6.98814C61.0001 6.93814 60.9001 6.88814 60.7501 6.91314H60.7251H60.7001C60.2751 7.08814 59.9751 7.48814 59.8751 8.03814C59.2501 10.8881 58.9751 15.2631 59.1751 18.9381C58.8001 19.8631 58.1001 20.6881 57.4501 20.9881C57.1501 21.1131 56.8501 21.1131 56.6001 20.9881C56.1001 20.7381 55.8001 19.7131 55.8501 18.3631C55.9251 16.6631 56.5501 15.2381 57.0001 14.8631C57.0751 14.7881 57.1501 14.7881 57.1751 14.7881C57.2001 14.7881 57.2251 14.8131 57.2751 14.8881C57.4751 15.2131 57.5751 16.2131 57.2001 17.2381C57.2001 17.2881 57.1751 17.3881 57.2251 17.4881C57.3001 17.5881 57.4001 17.5881 57.5251 17.5881H57.5501C58.1001 17.5631 58.6751 16.9131 58.6751 15.8631C58.6751 15.1131 58.2501 14.4131 57.5751 13.9881C57.2001 13.7381 56.7501 13.7381 56.3251 13.9381C55.9751 14.1131 55.6751 14.4131 55.4001 14.8131C54.9501 15.3881 54.2751 16.3131 54.2251 16.3631C54.2001 16.3881 53.9751 16.6131 53.9501 16.6631C53.7251 15.7381 53.3001 15.0131 52.7751 14.6631C52.5501 14.5131 52.3001 14.4381 52.0751 14.4631C51.7751 14.1631 51.4501 14.1881 51.2251 14.2881C50.4501 14.7131 49.6751 16.1881 49.5001 17.6381C49.1251 20.7131 50.6751 21.5881 51.3501 21.8131C51.9251 22.0131 52.5251 21.9131 53.0001 21.5631C53.7251 20.9881 54.1251 19.8631 54.1251 18.3881C54.1251 18.1631 54.1251 17.9381 54.1001 17.7131C54.2501 17.5381 54.4001 17.3881 54.5501 17.1881C54.5251 17.3881 54.5001 17.5631 54.4751 17.7881C54.2001 20.9131 55.6501 21.7881 56.5501 22.0381C57.2251 22.2131 57.8751 22.1381 58.4251 21.8131C58.7751 21.5881 59.0751 21.2881 59.3251 20.9131C59.3251 20.9381 59.3251 20.9381 59.3251 20.9631C59.4251 21.9631 59.9251 22.2881 60.3751 22.4631H60.4001H60.4251C60.4751 22.4631 60.6751 22.4881 60.7751 22.3881C60.8501 22.3131 60.8751 22.2131 60.8501 22.0881C60.2001 18.0131 61.6751 14.9881 62.6251 14.5631C62.8251 14.4631 62.9251 14.5381 62.9751 14.6131C63.1501 14.8381 63.2001 15.3381 63.1001 15.8881C63.0251 16.2881 62.6251 17.6631 61.1501 18.4381C60.9251 18.5881 60.8251 18.8131 60.8751 19.0631C61.0751 20.7381 62.0001 21.9631 63.2251 22.1881C63.8751 22.3131 64.4751 22.1881 64.9751 21.7881C65.2501 21.5631 65.4751 21.2631 65.6501 20.9131C66.0751 21.5381 66.5751 21.9381 67.1501 22.0631C67.7501 22.1881 68.3751 22.0131 68.8751 21.5381C69.5251 20.8131 69.5501 19.6381 68.8251 17.9881ZM51.9751 15.3381C52.2251 15.3881 52.5251 15.9881 52.6751 16.9131C52.3001 16.7131 52.1001 16.2381 52.0501 16.0881C51.9751 15.8631 51.9501 15.6631 51.9501 15.5381C51.9501 15.4381 51.9501 15.3631 51.9751 15.3381ZM52.7751 18.1881C52.7751 19.6131 52.3751 20.5881 51.9751 20.9131C51.8501 21.0131 51.7501 21.0381 51.6501 21.0131C51.4501 20.9631 50.8251 20.2881 50.8251 18.7631C50.8251 18.5881 50.8251 18.4131 50.8501 18.2131C50.9001 17.6881 51.0001 17.1881 51.1251 16.7631C51.3751 17.4881 51.9251 18.0881 52.7751 18.1881ZM68.1001 20.8631C68.0001 20.9631 67.8251 20.9631 67.7251 20.9381C67.2251 20.8631 66.4501 20.3131 65.9501 19.2881C65.9501 19.2631 65.9501 19.2631 65.9501 19.2381C65.9501 19.2131 65.9501 19.2131 65.9501 19.1881C65.9751 19.0631 66.0251 18.9131 66.0251 18.9131C66.2501 17.9881 66.4751 16.9881 66.8251 16.1631C66.8751 16.7881 67.1001 17.5631 67.5001 18.4631L67.5751 18.6131C67.9001 19.4381 68.3751 20.5381 68.1001 20.8631Z" fill="#2B2C30"/>
<path d="M23.9249 14.3131C23.4249 14.0131 22.9249 13.9631 22.4499 14.1631C21.9749 14.3631 21.5249 14.8381 21.1999 15.5131C21.2499 14.7631 21.3249 14.1131 21.3999 13.5381V13.5131C21.3999 13.4881 21.4249 13.4381 21.4249 13.3881C21.4249 13.3381 21.3999 13.2631 21.3499 13.2131C21.2249 13.1131 21.0749 13.1881 20.9999 13.2131C20.5749 13.3881 20.3249 13.7631 20.1999 14.3131C19.9749 15.5881 19.7999 17.4881 19.6999 19.5631C19.3999 20.3631 18.9999 20.7881 18.8499 20.7631C18.8499 20.7631 18.7999 20.7381 18.7749 20.6631C18.3999 20.0631 18.2499 17.5131 18.8499 15.0381C18.8749 14.8631 18.8249 14.7881 18.7749 14.7381C18.7249 14.6881 18.6249 14.6381 18.4749 14.6631C18.3749 14.6881 18.1499 14.7631 17.9499 14.9631C17.7999 14.7131 17.5999 14.4631 17.3249 14.2881C16.9249 14.0381 16.4749 14.0131 16.0249 14.2131C15.0999 14.5881 14.3249 15.7881 13.8999 17.5131C13.2499 20.1631 14.1249 21.5131 15.1749 21.8881C15.6999 22.0881 16.1749 22.0881 16.5749 21.8631C16.9749 21.6381 17.2749 21.2381 17.4999 20.6131C17.7249 21.2131 18.0999 21.5881 18.5999 21.7881C18.9749 21.9131 19.2999 21.9131 19.6249 21.7631C19.6249 22.2631 19.5999 22.7631 19.5999 23.2631C19.5999 24.7131 19.6499 26.1381 19.7499 27.3131C19.8499 28.3631 20.5249 28.6881 20.8249 28.7631C20.8999 28.7881 21.0499 28.8381 21.1749 28.7131C21.2999 28.6131 21.2749 28.4381 21.2499 28.3881C21.0499 26.5881 20.9499 24.2631 20.9499 21.5131C20.9999 21.5631 21.0499 21.6131 21.1249 21.6631C21.6499 22.0131 22.2749 22.0631 22.8499 21.8381C23.7999 21.4631 24.5499 20.3631 24.8999 18.8631C25.4249 16.7631 25.0249 14.9631 23.9249 14.3131ZM17.2999 16.8381C17.1999 18.9881 16.5499 20.4631 15.9749 20.9131C15.8499 21.0131 15.7499 21.0381 15.6749 21.0381C15.3999 20.9881 15.0749 20.4631 15.0749 19.3881C15.0749 19.0631 15.0999 18.6631 15.1749 18.2381C15.3999 16.7881 16.1249 15.5131 16.6499 15.1631C16.7749 15.0881 16.8249 15.0881 16.8499 15.0881C17.0749 15.1631 17.3499 15.7881 17.2999 16.8381ZM23.6499 18.1381C23.3999 19.4131 22.8999 20.3881 22.2749 20.7631C22.0749 20.8881 21.8749 20.9131 21.7499 20.8631C21.3499 20.7381 21.1249 20.0381 21.1749 19.0631C21.2999 17.2131 22.0749 15.8631 22.7749 15.3381C22.9749 15.1881 23.1499 15.1131 23.2749 15.1381C23.4999 15.2131 23.9749 16.4131 23.6499 18.1381Z" fill="#2B2C30"/>
<path d="M35.7 14.6132C35.7 14.5132 35.7 14.4132 35.6 14.3132C35.5 14.2382 35.375 14.2632 35.275 14.2882C34.825 14.3882 34.55 14.6882 34.375 15.3382C34.25 15.8632 34.175 16.6882 34.1 17.6632L34.025 18.5382C33.8 20.8132 33.3 21.0132 33.2 21.0382C33.05 21.0632 32.85 20.8382 32.7 20.4382C32.2 19.1882 32.4 16.0382 32.725 14.3632C32.75 14.2632 32.75 14.1382 32.675 14.0382C32.575 13.9382 32.475 13.9632 32.35 13.9882C31.975 14.0382 31.675 14.4132 31.55 14.9382C31 17.3382 30.9 20.4132 31.8 21.6632C32.25 22.2632 32.975 22.3882 33.55 21.9632C33.8 21.7882 34 21.5632 34.175 21.2882C34.2 22.2632 34.25 23.1632 34.325 23.9632C34.375 24.4632 34.4 24.8882 34.4 25.2632C34.4 26.2632 34.25 26.8382 33.9 27.0632C33.7 27.1882 33.475 27.2132 33.25 27.1132C32.6 26.8632 32 25.8882 31.675 24.5382C31.625 24.2882 31.45 24.2382 31.4 24.2382C31.275 24.2132 31.125 24.3132 31.05 24.4632C30.925 24.7382 30.8 25.2632 30.975 26.1632C31.2 27.2382 31.8 28.0382 32.525 28.3132C32.925 28.4632 33.575 28.5132 34.35 27.9132C35.1 27.3382 35.925 26.1882 35.7 23.9382C35.55 22.3632 35.25 18.3882 35.7 14.6132Z" fill="#2B2C30"/>
<path d="M69.75 13.7382C69.125 13.7382 68.675 13.2632 68.675 12.6632C68.675 12.0632 69.125 11.5632 69.75 11.5632C70.375 11.5632 70.825 12.0382 70.825 12.6632C70.825 13.2382 70.375 13.7382 69.75 13.7382ZM69.75 11.7382C69.225 11.7382 68.875 12.1132 68.875 12.6382C68.875 13.1632 69.225 13.5382 69.75 13.5382C70.275 13.5382 70.625 13.1632 70.625 12.6382C70.625 12.1132 70.3 11.7382 69.75 11.7382ZM70 13.1882L69.8 12.7632H69.575V13.1882H69.375V12.0632H69.8C70.025 12.0632 70.2 12.1882 70.2 12.4132C70.2 12.5632 70.125 12.6882 70 12.7382L70.2 13.1882H70ZM69.8 12.2382H69.575V12.5882H69.8C69.925 12.5882 70 12.5382 70 12.4132C70 12.2882 69.925 12.2382 69.8 12.2382Z" fill="#2B2C30"/>
</g>
<defs>
<clipPath id="clip0_3842_38693">
<rect width="71" height="29" fill="white"/>
</clipPath>
</defs>
</svg>
