<svg width="579" height="111" viewBox="0 0 579 111" fill="none" xmlns="http://www.w3.org/2000/svg">
<path fill-rule="evenodd" clip-rule="evenodd" d="M181.117 103.563C181.117 104.665 180.638 105.308 179.776 105.767C178.051 106.685 174.601 107.052 172.301 107.052C166.264 107.052 160.226 105.124 155.052 100.35C152.752 98.2382 148.056 91.8114 148.056 82.9057C148.056 75.5608 150.739 69.7767 154.573 66.9305C159.556 63.1663 164.539 62.799 168.659 62.799C177.188 62.799 182.459 65.5534 184.088 67.9405C185.046 69.4094 185.43 71.2457 185.43 72.072C185.525 72.6228 185.525 72.9901 185.909 72.9901C186.388 72.9901 186.484 72.7147 186.484 71.7047C186.484 65.3697 186.963 63.6253 186.963 62.799C186.963 62.5236 186.867 62.2481 186.196 62.2481C184.567 62.1563 182.267 61.9727 180.83 61.6055C179.584 61.33 174.888 60.5037 170.768 60.5037C165.689 60.5037 159.172 60.9628 153.231 64.4516C147.385 67.9405 142.211 75.1017 142.211 85.201C142.211 93.0968 146.044 99.799 150.069 103.196C157.352 109.347 166.743 109.898 171.726 109.898C175.559 109.898 181.501 109.164 185.717 107.052C186.484 106.593 186.579 106.501 186.579 103.655V96.5856C186.579 93.9231 186.579 92.0869 186.675 90.067C186.771 87.8635 187.346 86.7618 189.071 86.4864C189.838 86.3946 190.221 86.3027 190.7 86.3027C190.988 86.3027 191.179 86.2109 191.179 85.9355C191.179 85.5682 190.892 85.4764 190.125 85.4764C188.113 85.4764 183.992 85.66 183.705 85.66C183.417 85.66 179.201 85.4764 176.23 85.4764C175.463 85.4764 175.176 85.5682 175.176 85.9355C175.176 86.2109 175.463 86.3027 175.655 86.3027C176.23 86.3027 177.38 86.3946 177.859 86.4864C180.446 87.2209 180.83 87.8635 180.83 93.005L181.117 103.563Z" fill="#2B2C30"/>
<path fill-rule="evenodd" clip-rule="evenodd" d="M199.516 102.921C198.462 105.583 197.408 107.695 194.821 107.97C194.342 108.062 193.575 108.062 193.192 108.062C192.904 108.062 192.713 108.154 192.713 108.429C192.713 108.797 193.096 108.888 193.767 108.888C196.45 108.888 199.516 108.705 200.091 108.705C200.666 108.705 203.158 108.888 204.5 108.888C204.979 108.888 205.362 108.797 205.362 108.429C205.362 108.246 205.17 108.062 204.787 108.062H204.212C203.254 108.062 202.104 107.603 202.104 106.501C202.104 105.491 202.391 104.206 202.87 102.921L206.224 93.3722C206.32 93.0968 206.512 92.9132 206.799 92.9132H218.874C219.161 92.9132 219.257 93.005 219.353 93.2804L224.624 106.593C225.007 107.419 224.624 107.97 224.24 108.062C224.049 108.154 223.857 108.246 223.857 108.429C223.857 108.797 224.432 108.797 225.582 108.797C229.511 108.888 233.632 108.888 234.398 108.888C234.973 108.888 235.548 108.797 235.548 108.429C235.548 108.154 235.357 108.062 234.973 108.062C234.398 108.062 233.536 107.97 232.673 107.695C231.523 107.328 229.894 106.501 227.786 101.727C224.336 93.5558 215.52 71.2457 214.657 69.134C213.987 67.4814 213.795 67.206 213.412 67.206C213.028 67.206 212.837 67.5732 212.166 69.3176L199.516 102.921ZM207.374 90.9851C207.183 90.9851 207.087 90.8933 207.183 90.6179L212.166 76.0198C212.453 75.1935 212.741 75.1935 213.028 76.0198L218.395 90.6179C218.491 90.8015 218.491 90.9851 218.203 90.9851H207.374Z" fill="#2B2C30"/>
<path fill-rule="evenodd" clip-rule="evenodd" d="M250.593 70.3276L257.685 70.4194C263.051 70.5112 264.393 71.7965 264.584 73.3573L264.68 73.9082C264.776 74.6427 264.872 74.8263 265.159 74.8263C265.351 74.8263 265.543 74.6427 265.543 74.0918C265.543 73.541 265.734 69.7767 265.734 68.1241C265.734 67.7568 265.734 67.4814 265.447 67.4814C265.255 67.4814 264.68 67.5732 263.914 67.7568C263.051 67.8486 261.71 68.0323 259.889 68.0323H238.711C238.04 68.0323 235.931 67.9404 234.302 67.7568C232.769 67.665 232.194 67.1142 231.811 67.1142C231.619 67.1142 231.332 67.8486 231.236 68.1241C231.14 68.5831 229.99 73.1737 229.99 73.7246C229.99 74.0918 230.086 74.1836 230.278 74.1836C230.469 74.1836 230.661 74.0918 230.853 73.6328C231.044 73.2655 231.236 72.8983 231.811 71.9801C232.673 70.6948 234.111 70.3275 237.561 70.2357L245.898 70.1439V93.005C245.898 98.1464 245.898 102.462 245.61 104.757C245.419 106.318 245.131 107.511 243.981 107.695C243.502 107.787 242.831 107.878 242.256 107.878C241.873 107.878 241.777 108.062 241.777 108.246C241.777 108.613 242.065 108.705 242.64 108.705C244.364 108.705 247.91 108.521 248.198 108.521C248.485 108.521 252.031 108.705 255.097 108.705C255.672 108.705 255.96 108.521 255.96 108.246C255.96 108.062 255.864 107.878 255.481 107.878C255.002 107.878 253.756 107.787 252.989 107.695C251.264 107.511 250.977 106.318 250.785 104.757C250.498 102.462 250.498 98.2382 250.498 93.005V70.3276H250.593Z" fill="#2B2C30"/>
<path fill-rule="evenodd" clip-rule="evenodd" d="M276.563 93.1886C276.563 98.33 276.563 102.645 276.276 104.94C276.084 106.501 275.796 107.695 274.647 107.878C274.167 107.97 273.497 108.062 272.922 108.062C272.538 108.062 272.442 108.246 272.442 108.429C272.442 108.797 272.73 108.888 273.305 108.888C274.167 108.888 275.413 108.797 276.563 108.797C277.713 108.797 278.671 108.705 278.863 108.705C280.492 108.705 284.229 109.072 292.758 109.072C294.962 109.072 295.441 109.072 295.825 107.695C296.112 106.593 296.591 102.921 296.591 102.462C296.591 102.094 296.591 101.635 296.208 101.635C295.921 101.635 295.825 101.819 295.729 102.462C295.346 104.665 294.675 105.767 293.237 106.318C291.8 106.868 289.308 106.868 287.871 106.868C282.313 106.868 281.546 106.134 281.355 102.462C281.259 101.36 281.355 95.0248 281.355 93.1886V88.4144C281.355 88.2308 281.45 88.0471 281.738 88.0471C282.696 88.0471 288.254 88.139 289.788 88.3226C291.992 88.5062 292.471 89.4243 292.758 90.2506C292.95 90.9851 292.95 91.536 292.95 91.9951C292.95 92.2705 293.046 92.4541 293.333 92.4541C293.717 92.4541 293.717 91.9032 293.717 91.4442C293.717 91.0769 293.812 89.0571 293.908 87.9553C294.1 86.2109 294.387 85.2928 294.387 84.9256C294.387 84.5583 294.291 84.4665 294.1 84.4665C293.908 84.4665 293.621 84.7419 293.237 85.201C292.758 85.7519 291.896 85.8437 290.554 85.9355C289.213 86.0273 282.313 86.0273 281.546 86.0273C281.259 86.0273 281.163 85.8437 281.163 85.4764V70.6948C281.163 70.3275 281.259 70.1439 281.546 70.1439C282.121 70.1439 288.35 70.2357 289.308 70.3275C292.375 70.6948 292.95 71.3375 293.333 72.1638C293.621 72.8065 293.717 73.7246 293.717 74.0918C293.717 74.5509 293.812 74.8263 294.196 74.8263C294.387 74.8263 294.579 74.4591 294.579 74.2754C294.675 73.6327 294.771 71.2457 294.866 70.6948C295.058 69.2258 295.346 68.4913 295.346 68.1241C295.346 67.8486 295.25 67.665 295.154 67.665C294.866 67.665 294.675 67.8486 294.387 67.9404C293.908 68.0323 293.046 68.1241 291.992 68.2159C290.65 68.3077 279.438 68.3077 279.055 68.3077C278.767 68.3077 275.221 68.1241 272.73 68.1241C272.155 68.1241 271.867 68.2159 271.867 68.5831C271.867 68.7668 272.059 68.9504 272.347 68.9504C272.826 68.9504 273.784 69.0422 274.263 69.134C276.084 69.5012 276.563 70.4194 276.659 72.2556C276.755 74 276.755 75.469 276.755 83.9156L276.563 93.1886Z" fill="#2B2C30"/>
<path fill-rule="evenodd" clip-rule="evenodd" d="M314.511 109.623C317.578 109.623 320.645 108.98 323.04 107.328C326.969 104.665 327.832 100.534 327.832 98.33C327.832 94.0149 326.298 90.6179 319.59 85.66L318.057 84.4665C312.787 80.335 311.157 78.4988 311.157 75.3772C311.157 71.4293 314.224 69.134 318.057 69.134C323.232 69.134 324.765 71.4293 325.148 71.9801C325.532 72.531 325.819 74 325.915 74.6427C326.011 75.1017 326.011 75.3772 326.394 75.3772C326.682 75.3772 326.778 75.0099 326.778 74.0918C326.778 70.4194 326.969 68.6749 326.969 68.3995C326.969 68.1241 326.873 68.0323 326.394 68.0323C325.915 68.0323 325.532 67.9404 324.382 67.7568C322.944 67.3896 321.315 67.206 319.111 67.206C311.924 67.206 307.42 71.1538 307.42 76.938C307.42 80.6104 308.762 83.9156 314.799 88.6898L317.29 90.7097C322.178 94.5658 323.807 96.6774 323.807 100.442C323.807 103.931 321.124 107.603 315.757 107.603C312.02 107.603 308.283 106.134 307.42 102.094C307.228 101.36 307.228 100.625 307.228 100.074C307.228 99.6154 307.133 99.5236 306.845 99.5236C306.558 99.5236 306.462 99.799 306.366 100.35C306.27 101.176 306.078 103.38 306.078 106.042C306.078 107.511 306.174 107.695 306.941 108.062C309.241 109.256 311.828 109.623 314.511 109.623Z" fill="#2B2C30"/>
<path fill-rule="evenodd" clip-rule="evenodd" d="M365.588 83.1812C366.259 82.7221 366.355 81.9876 366.068 81.5285H360.318C361.564 77.7643 362.522 74.1836 364.63 71.2457C365.78 69.7767 366.93 68.8586 368.272 68.8586C369.517 68.8586 370.955 69.6849 371.051 72.3474C371.051 72.6228 371.242 73.0819 371.721 73.0819C372.488 73.0819 373.734 71.7047 373.734 70.3276C373.734 68.5831 371.913 67.3896 369.901 67.3896C367.218 67.3896 364.438 68.4913 362.139 71.062C359.455 74.1836 358.21 77.5806 356.964 81.6203H353.035C352.46 81.9876 352.268 82.8139 352.747 83.273H356.58C354.376 90.5261 352.843 98.0546 350.447 105.491C349.489 108.521 348.339 109.164 347.572 109.164C346.614 109.164 345.464 108.521 344.793 107.511C344.41 106.96 344.123 106.593 343.452 107.144C343.164 107.328 342.589 107.787 342.589 108.705C342.589 109.439 343.452 111 345.56 111C348.243 111 350.256 109.256 350.831 108.705C351.789 107.878 353.226 105.4 354.472 101.452C356.005 96.5856 357.347 91.6278 358.785 86.7618C359.168 85.4764 359.551 84.0075 359.839 83.273L365.588 83.1812Z" fill="#2B2C30"/>
<path fill-rule="evenodd" clip-rule="evenodd" d="M382.071 80.8859C380.154 80.8859 378.142 81.5285 375.746 83.732C372.584 86.5782 370.859 90.8933 370.667 93.6476C370.38 97.4119 372.296 99.5236 375.267 99.5236C376.513 99.5236 379.005 99.34 381.879 96.4938C385.329 93.0968 386.671 88.8735 386.767 86.4864C386.958 83.273 385.329 80.8859 382.071 80.8859ZM381.688 82.263C383.317 82.263 383.604 83.8238 383.508 85.201C383.413 87.5881 381.209 93.3722 379.196 96.0347C377.759 97.9628 376.609 98.33 375.555 98.33C374.213 98.33 373.542 97.0447 373.638 95.4839C373.734 93.0968 375.555 87.8635 378.238 84.3747C379.675 82.6303 380.825 82.263 381.688 82.263Z" fill="#2B2C30"/>
<path fill-rule="evenodd" clip-rule="evenodd" d="M403.153 82.263C403.441 81.5285 402.387 80.9777 401.812 80.9777C399.608 80.9777 395.008 84.4665 393.858 86.2109C393.858 86.5782 394.146 86.9454 394.625 86.8536C395.775 85.7519 398.17 83.8238 399.033 83.8238C399.416 83.8238 399.32 84.2829 399.033 85.1092L394.816 95.8511C394.05 97.7792 394.241 99.6154 396.158 99.6154C398.649 99.6154 404.399 93.9231 407.753 89.8834H407.849L404.687 97.9628C404.399 98.6973 405.07 99.5236 405.837 99.5236C408.328 99.5236 412.736 96.0347 413.886 93.9231C413.886 93.3722 413.503 93.1886 413.024 93.2804C411.778 94.6576 409.382 96.7692 408.52 96.7692C408.041 96.7692 408.137 96.2184 408.328 95.6675C410.245 90.4343 413.311 83.1811 413.695 81.9876C413.503 81.4367 412.353 80.9777 411.395 81.1613C409.862 83.8238 407.466 88.9653 403.249 93.005C400.854 95.3002 399.033 96.6774 398.266 96.6774C397.787 96.6774 397.5 96.2184 397.979 95.2085L403.153 82.263Z" fill="#2B2C30"/>
<path fill-rule="evenodd" clip-rule="evenodd" d="M429.986 82.7221C430.369 81.7122 429.89 80.8859 428.74 80.8859C426.44 80.8859 423.565 82.7221 421.84 85.0174C421.84 85.3846 422.032 85.66 422.415 85.66C423.948 84.3747 425.577 83.4566 426.632 83.4566C427.015 83.4566 427.015 83.9156 426.727 84.4665C426.536 85.1092 421.553 97.871 421.361 98.4219C420.978 99.4318 422.223 99.6154 422.703 99.6154C423.086 99.6154 423.278 99.5236 423.565 99.0645C426.248 94.1985 428.165 90.7097 430.656 87.8635C433.148 84.8338 435.927 82.6303 436.981 82.6303C437.652 82.6303 437.748 83.1812 437.748 83.732C437.748 84.6501 437.173 86.2109 436.79 86.9454C435.735 89.1489 434.01 93.464 433.052 95.6675C432.094 97.871 431.902 98.1464 431.902 98.6055C431.902 99.1563 432.573 99.7072 433.052 99.7072C435.544 99.7072 439.281 97.5955 441.006 94.7494C441.006 94.3821 440.91 94.0149 440.239 94.1067C438.898 95.6675 436.694 97.1365 435.927 97.1365C435.64 97.1365 435.64 96.7692 435.831 96.3102C435.927 95.9429 439.281 88.7817 440.144 86.4864C440.527 85.4764 440.91 84.0992 440.91 83.3648C440.91 81.8958 440.144 80.9777 438.323 80.9777C434.873 80.9777 430.273 85.8437 427.015 90.6179L426.919 90.5261L429.986 82.7221Z" fill="#2B2C30"/>
<path fill-rule="evenodd" clip-rule="evenodd" d="M464.484 82.263C464.005 81.3449 462.855 80.8859 462.088 80.8859C459.884 80.8859 456.914 82.1712 453.847 84.8337C450.206 87.9553 447.714 93.2804 447.714 96.402C447.714 98.1464 448.672 99.6154 450.493 99.6154C454.997 99.6154 458.447 95.3002 461.609 91.2605H461.801L460.172 95.6675C459.693 96.9529 459.597 97.6873 459.597 98.1464C459.597 98.8809 460.076 99.5236 461.034 99.5236C463.43 99.5236 467.647 95.8511 468.892 93.464C468.892 93.0968 468.605 92.9132 468.221 92.9132C466.784 94.6576 463.909 96.861 463.143 96.861C462.759 96.861 462.663 96.402 462.855 95.8511C463.238 94.5658 465.442 87.4045 470.042 75.3772C471.384 71.7047 472.151 70.0521 472.917 67.5732L472.725 67.2978C470.713 67.2978 468.126 67.8487 467.263 68.1241C467.072 68.3077 467.072 68.5831 467.167 68.7667L468.221 69.5013C468.892 69.8685 468.701 70.6948 467.838 73.1737L464.484 82.263ZM461.993 82.263C463.143 82.263 463.718 83.5484 463.238 85.4764C462.568 87.8635 461.226 90.4342 457.584 94.0149C454.422 97.1365 452.026 97.9628 451.356 97.9628C450.972 97.9628 450.493 97.5956 450.493 97.0447C450.493 96.4938 450.493 95.6675 451.931 92.8214C453.368 90.067 456.722 85.8437 458.543 84.1911C459.693 83.0893 460.938 82.263 461.993 82.263Z" fill="#2B2C30"/>
<path fill-rule="evenodd" clip-rule="evenodd" d="M490.166 82.7221C489.975 82.263 489.4 81.8958 489.208 81.804C488.921 81.7122 488.633 81.5285 488.058 81.5285C486.812 81.5285 485.662 81.804 483.938 82.8139C482.021 83.8238 480.104 85.5682 477.804 88.5062C474.738 92.5459 473.78 96.0348 473.78 97.0447C473.78 98.3301 474.546 99.5236 475.792 99.5236C477.996 99.5236 482.692 96.4938 485.95 92.5459H486.046L484.512 96.4938C484.129 97.5037 484.033 97.871 484.033 98.2382C484.033 98.6055 484.321 99.4318 485.375 99.4318C487.866 99.4318 491.22 96.9529 493.137 94.474C493.137 94.1067 492.85 93.9231 492.466 93.9231C489.879 96.1266 488.537 96.8611 487.675 96.8611C487.291 96.8611 487.1 96.5856 487.387 95.8511C488.825 91.8114 492.85 82.0794 493.616 80.4268C493.329 79.876 492.179 79.4169 491.316 79.7841L490.166 82.7221ZM486.717 83.1812C487.962 83.1812 488.729 83.9156 489.016 84.7419C488.25 87.3127 486.333 91.1688 482.788 94.2904C480.2 96.5856 478.763 97.1365 478.284 97.1365C477.9 97.1365 477.613 96.8611 477.613 96.3102C477.613 93.1886 480.392 87.4045 483.362 84.8338C484.896 83.732 485.567 83.1812 486.717 83.1812Z" fill="#2B2C30"/>
<path fill-rule="evenodd" clip-rule="evenodd" d="M513.549 83.6402C514.124 83.3648 514.411 82.4467 514.124 81.9876H509.045L510.386 77.6725C510.003 77.2134 509.045 77.1216 508.661 77.397L506.074 81.804L502.337 82.4467C501.858 82.6303 501.762 83.273 501.858 83.6402H505.499L501.187 95.8511C500.708 97.1365 500.516 97.7792 500.516 98.3301C500.516 98.8809 501.091 99.5236 501.762 99.5236C503.678 99.5236 508.086 96.8611 510.674 93.1886C510.77 92.6377 510.482 92.3623 510.003 92.3623C508.47 94.0149 505.403 96.3102 504.732 96.3102C504.349 96.3102 504.157 96.0348 504.445 95.2085L508.566 83.5484H513.549V83.6402Z" fill="#2B2C30"/>
<path fill-rule="evenodd" clip-rule="evenodd" d="M518.148 97.9628C517.957 98.4219 518.053 98.8809 518.34 99.1563C518.532 99.4318 518.819 99.5236 519.107 99.5236C522.269 99.5236 527.061 95.5757 527.731 94.2903C527.731 93.9231 527.54 93.5558 527.061 93.5558C525.527 95.3002 523.036 96.861 522.269 96.861C521.886 96.861 521.982 96.3102 522.173 95.8511L527.636 83.273C528.211 81.9876 528.211 81.6204 527.923 81.3449C527.731 81.1613 527.54 80.8859 527.156 80.8859C525.623 80.8859 522.077 82.5385 519.49 85.2928C519.394 85.66 519.682 86.0273 520.065 86.0273C522.365 84.1911 523.611 83.6402 523.898 83.6402C524.186 83.6402 524.186 84.0074 523.994 84.4665L518.148 97.9628ZM528.306 70.3276C526.486 70.3276 525.815 72.1638 525.815 73.0819C525.815 73.9082 526.294 74.7345 527.444 74.7345C528.881 74.7345 529.936 73.3573 529.936 71.9801C529.936 70.9702 529.361 70.3276 528.306 70.3276Z" fill="#2B2C30"/>
<path fill-rule="evenodd" clip-rule="evenodd" d="M547.472 80.8859C545.556 80.8859 543.543 81.5285 541.052 83.732C537.889 86.5782 536.164 90.8933 535.973 93.6476C535.685 97.4119 537.602 99.5236 540.573 99.5236C541.818 99.5236 544.31 99.34 547.185 96.4938C550.635 93.0968 551.976 88.8735 552.072 86.4864C552.36 83.273 550.73 80.8859 547.472 80.8859ZM547.089 82.263C548.718 82.263 549.006 83.8238 548.91 85.201C548.814 87.5881 546.61 93.3722 544.597 96.0347C543.16 97.9628 541.914 98.33 540.956 98.33C539.614 98.33 538.944 97.0447 539.039 95.4839C539.135 93.0968 540.956 87.8635 543.639 84.3747C545.077 82.6303 546.226 82.263 547.089 82.263Z" fill="#2B2C30"/>
<path fill-rule="evenodd" clip-rule="evenodd" d="M567.884 82.7221C568.267 81.7122 567.788 80.8859 566.638 80.8859C564.338 80.8859 561.463 82.7221 559.738 85.0174C559.738 85.3846 559.93 85.66 560.313 85.66C561.847 84.3747 563.476 83.4566 564.53 83.4566C564.913 83.4566 564.913 83.9156 564.626 84.4665C564.434 85.1092 559.451 97.871 559.259 98.4219C558.876 99.4318 560.122 99.6154 560.601 99.6154C560.984 99.6154 561.176 99.5236 561.463 99.0645C564.146 94.1985 566.063 90.7097 568.555 87.8635C571.142 84.8338 573.825 82.6303 574.975 82.6303C575.646 82.6303 575.742 83.1812 575.742 83.732C575.742 84.6501 575.167 86.2109 574.784 86.9454C573.729 89.1489 572.004 93.464 571.046 95.6675C570.088 97.871 569.896 98.1464 569.896 98.6055C569.896 99.1563 570.567 99.7072 571.046 99.7072C573.634 99.7072 577.275 97.5955 579 94.7494C579 94.3821 578.904 94.0149 578.233 94.1067C576.892 95.6675 574.688 97.1365 573.921 97.1365C573.634 97.1365 573.634 96.7692 573.825 96.3102C573.921 95.9429 577.275 88.7817 578.138 86.4864C578.521 85.4764 578.904 84.0992 578.904 83.3648C578.904 81.8958 578.138 80.9777 576.317 80.9777C572.867 80.9777 568.267 85.8437 565.009 90.6179L564.913 90.5261L567.884 82.7221Z" fill="#2B2C30"/>
<path fill-rule="evenodd" clip-rule="evenodd" d="M5.84559 30.665C5.84559 36.7246 5.84558 41.6824 5.5581 44.3449C5.27061 46.1811 4.98312 47.5583 3.64151 47.8338C3.06654 47.9256 2.29991 48.1092 1.62911 48.1092C1.24579 48.1092 1.05413 48.2928 1.05413 48.4764C1.05413 48.8437 1.34162 49.0273 2.10825 49.0273C4.12067 49.0273 8.24132 48.8437 8.52881 48.8437C9.10378 48.8437 15.8118 49.2109 17.2493 49.2109C28.4613 49.2109 34.0194 42.2333 34.0194 35.4392C34.0194 28.0943 27.503 23.5955 22.6157 22.1266C25.6822 19.005 28.8446 15.9752 28.8446 10.7419C28.8446 7.62035 26.4489 1.28535 15.716 1.28535C12.6495 1.28535 10.1579 1.46899 8.52881 1.46899C8.24132 1.46899 4.02483 1.28535 1.05413 1.28535C0.287493 1.28535 0 1.37717 0 1.74441C0 2.01985 0.287493 2.11167 0.574981 2.11167C1.14996 2.11167 2.29991 2.20347 2.77906 2.29529C4.98313 2.75434 5.46227 3.76426 5.65393 5.87593C5.74976 7.89578 5.74975 9.6402 5.74975 19.464L5.84559 30.665ZM11.1162 4.0397C11.1162 3.67245 11.3079 3.48884 11.8828 3.30522C12.937 3.02978 14.2786 3.02978 15.0452 3.02978C21.4658 3.02978 23.9573 8.63028 23.9573 13.8635C23.9573 16.4342 22.999 18.7295 21.5616 20.1985C20.22 21.6675 19.2617 21.8511 15.6202 21.8511C13.2244 21.8511 11.9787 21.6675 11.5953 21.5757C11.3079 21.4839 11.1162 21.3002 11.1162 20.8412V4.0397ZM11.1162 24.0546C11.1162 23.7792 11.212 23.5955 11.4995 23.5955C12.4578 23.5955 15.8118 23.5955 16.6743 23.6873C18.2076 23.871 19.9325 24.0546 22.1366 25.5236C27.2155 28.8288 28.5571 34.3375 28.5571 38.1017C28.5571 45.263 22.8074 47.0074 19.2617 47.0074C18.1117 47.0074 15.2368 46.9156 13.5119 46.0893C11.4995 45.1712 11.4995 44.2531 11.3078 41.1315C11.212 40.2134 11.212 32.4094 11.212 27.5434V24.0546H11.1162Z" fill="#2B2C30"/>
<path fill-rule="evenodd" clip-rule="evenodd" d="M53.281 23.6873C53.281 15.2407 53.281 13.7717 53.3769 12.0273C53.4727 10.0993 53.9519 9.18114 55.4851 8.90571C56.1559 8.81389 56.5392 8.72209 56.9225 8.72209C57.1142 8.72209 57.4017 8.63028 57.4017 8.35485C57.4017 7.9876 57.1142 7.89579 56.5392 7.89579C54.8143 7.89579 51.2686 8.07941 50.9811 8.07941C50.6937 8.07941 47.148 7.89579 45.3272 7.89579C44.7522 7.89579 44.4648 7.9876 44.4648 8.35485C44.4648 8.53847 44.6564 8.72209 44.9439 8.72209C45.3272 8.72209 46.0939 8.81389 46.6688 8.90571C47.9146 9.18114 48.4896 10.0993 48.5854 11.9355C48.6812 13.6799 48.6812 15.1489 48.6812 23.5955V33.1439C48.6812 38.2854 48.6812 42.6005 48.3937 44.8958C48.2021 46.4566 47.9146 47.6501 46.7647 47.8338C46.2855 47.9256 45.6147 48.0174 45.0397 48.0174C44.6564 48.0174 44.5606 48.201 44.5606 48.3846C44.5606 48.7519 44.8481 48.8437 45.4231 48.8437C47.148 48.8437 50.6937 48.6601 50.9811 48.6601C51.2686 48.6601 54.8143 48.8437 57.8808 48.8437C58.4558 48.8437 58.7433 48.66 58.7433 48.3846C58.7433 48.201 58.6475 48.0174 58.2642 48.0174C57.785 48.0174 56.5392 47.9256 55.7726 47.8338C54.0477 47.6501 53.7602 46.4566 53.5685 44.8958C53.281 42.6005 53.281 38.3772 53.281 33.1439V23.6873Z" fill="#2B2C30"/>
<path fill-rule="evenodd" clip-rule="evenodd" d="M77.7175 23.6873C77.7175 15.2407 77.7175 13.7717 77.8133 12.0273C77.9092 10.0993 78.3883 9.18114 80.0174 8.90571C80.6882 8.81389 81.4548 8.72209 81.8381 8.72209C82.0298 8.72209 82.3173 8.63028 82.3173 8.35485C82.3173 7.9876 82.0298 7.89579 81.4548 7.89579C79.7299 7.89579 75.6092 8.07941 75.3218 8.07941C75.0343 8.07941 71.4886 7.89579 68.997 7.89579C68.422 7.89579 68.1346 7.9876 68.1346 8.35485C68.1346 8.53847 68.3262 8.72209 68.6137 8.72209C69.0929 8.72209 70.0512 8.81389 70.5303 8.90571C72.3511 9.27295 72.8302 10.1911 72.926 12.0273C73.0219 13.7717 73.0219 15.2407 73.0219 23.6873V33.2357C73.0219 38.3772 73.0218 42.6923 72.7344 44.9876C72.5427 46.5484 72.2552 47.7419 71.1053 47.9256C70.6261 48.0174 69.9553 48.1092 69.3803 48.1092C68.997 48.1092 68.9012 48.2928 68.9012 48.4764C68.9012 48.8437 69.1887 48.9355 69.7637 48.9355C70.6261 48.9355 71.8719 48.8437 73.0219 48.8437C74.1718 48.8437 75.1301 48.7519 75.3218 48.7519C78.58 48.7519 82.3173 49.1191 90.4628 49.1191C93.4335 49.1191 93.6251 48.9355 94.0085 47.6501C94.4876 46.0893 94.8709 42.8759 94.8709 42.2333C94.8709 41.6824 94.7751 41.407 94.4876 41.407C94.1043 41.407 94.0085 41.6824 94.0085 42.1414C93.8168 43.1514 93.2418 44.5285 92.571 45.3548C91.2294 46.9156 88.7378 47.0074 85.7671 47.0074C81.359 47.0074 79.9215 46.6402 78.9633 45.7221C77.9091 44.7122 77.7175 41.3151 77.7175 33.3275V23.6873Z" fill="#2B2C30"/>
<path fill-rule="evenodd" clip-rule="evenodd" d="M109.437 23.6873C109.437 15.2407 109.437 13.7717 109.533 12.0273C109.629 10.0993 110.108 9.18114 111.737 8.90571C112.408 8.81389 113.174 8.72209 113.558 8.72209C113.749 8.72209 114.037 8.63028 114.037 8.35485C114.037 7.9876 113.749 7.89579 113.174 7.89579C111.449 7.89579 107.329 8.07941 107.041 8.07941C106.754 8.07941 103.208 7.89579 100.716 7.89579C100.142 7.89579 99.854 7.9876 99.854 8.35485C99.854 8.53847 100.046 8.72209 100.333 8.72209C100.812 8.72209 101.771 8.81389 102.25 8.90571C104.071 9.27295 104.55 10.1911 104.646 12.0273C104.741 13.7717 104.741 15.2407 104.741 23.6873V33.2357C104.741 38.3772 104.741 42.6923 104.454 44.9876C104.262 46.5484 103.975 47.7419 102.825 47.9256C102.346 48.0174 101.675 48.1092 101.1 48.1092C100.716 48.1092 100.621 48.2928 100.621 48.4764C100.621 48.8437 100.908 48.9355 101.483 48.9355C102.346 48.9355 103.591 48.8437 104.741 48.8437C105.891 48.8437 106.85 48.7519 107.041 48.7519C110.299 48.7519 114.037 49.1191 122.182 49.1191C125.153 49.1191 125.345 48.9355 125.728 47.6501C126.207 46.0893 126.59 42.8759 126.59 42.2333C126.59 41.6824 126.495 41.407 126.207 41.407C125.824 41.407 125.728 41.6824 125.728 42.1414C125.536 43.1514 124.961 44.5285 124.29 45.3548C122.949 46.9156 120.457 47.0074 117.487 47.0074C113.078 47.0074 111.641 46.6402 110.683 45.7221C109.629 44.7122 109.437 41.3151 109.437 33.3275V23.6873Z" fill="#2B2C30"/>
<path fill-rule="evenodd" clip-rule="evenodd" d="M147.289 43.8859C150.644 43.8859 155.339 42.5087 158.693 38.928C162.335 34.9801 163.389 30.4814 163.58 29.1042C163.676 28.2779 163.772 26.0744 163.772 25.2481C165.21 26.3499 166.839 28.0943 167.03 28.4615C167.222 28.8288 167.605 29.0124 168.18 28.737C169.043 28.2779 170.959 27.7271 171.726 27.6352C172.205 27.5434 172.684 27.4516 172.972 27.1762C173.355 26.8089 173.834 26.0744 173.834 25.0645C173.834 23.871 173.355 22.4938 172.109 22.4938C171.247 22.4938 170.576 23.0447 170.576 23.5955C170.576 23.6873 170.672 23.9628 170.768 24.2382C170.863 24.5136 170.959 24.8809 170.959 25.34C170.959 26.0744 170.48 26.7171 170.001 26.7171C169.139 26.7171 169.043 26.5335 167.893 25.5236C165.593 23.5037 164.155 21.9429 161.568 21.9429C160.897 21.9429 158.789 22.3102 156.872 23.7792C154.477 25.6154 153.614 27.727 153.614 28.9206C153.614 30.1141 154.668 30.7568 155.627 30.7568C156.968 30.7568 157.16 29.8387 157.16 29.4715C157.16 29.196 156.968 28.737 156.872 28.1861C156.681 27.727 156.489 27.0844 156.489 26.7171C156.489 25.1563 158.501 23.7792 159.939 23.7792C160.897 23.7792 161.856 24.0546 162.43 24.5136C162.239 28.2779 161.664 30.5732 159.843 33.6948C157.064 38.5608 152.177 41.1315 148.248 41.1315C144.606 41.1315 139.719 39.2035 139.815 33.3275V32.9603C144.798 29.7469 152.752 23.9628 156.681 20.1985C161.089 16.067 162.718 13.2208 162.718 10.8338C162.718 9.08933 161.664 8.44665 160.514 8.44665C159.651 8.44665 158.597 9.08933 158.597 10.2829C158.597 10.7419 158.693 10.9256 159.076 11.2928C159.364 11.5682 159.651 12.0273 159.651 12.67C159.651 13.8635 158.597 15.6998 157.927 16.5261C156.585 18.1787 153.327 21.3921 151.218 23.0447C150.835 22.4938 150.356 21.3002 148.248 21.3002C147.194 21.3002 144.223 21.7593 141.156 24.8809C137.323 28.6452 136.557 32.4094 136.557 34.7047C136.748 39.4789 139.719 43.8859 147.289 43.8859ZM140.006 31.3995C140.294 29.4715 141.061 27.6352 142.594 25.799C144.031 24.0546 145.565 23.3201 146.235 23.3201C147.098 23.3201 147.769 23.871 147.769 24.6973V25.799C146.235 27.1762 143.456 29.1042 140.006 31.3995Z" fill="#2B2C30"/>
<path fill-rule="evenodd" clip-rule="evenodd" d="M235.644 1.74441C235.548 0.550863 235.357 0 234.877 0C234.398 0 234.111 0.459063 233.919 1.00993L214.562 40.5806L194.437 0.918114C194.15 0.183623 193.862 0 193.479 0C193.096 0 192.904 0.459054 192.713 1.10173L187.921 42.2333C187.634 44.6203 187.442 47.0993 185.334 47.4665C184.375 47.6501 183.896 47.6501 183.321 47.6501C183.034 47.6501 182.65 47.7419 182.65 47.9256C182.65 48.3846 183.13 48.4764 183.8 48.4764C185.621 48.4764 188.688 48.2928 189.359 48.2928C189.933 48.2928 193 48.4764 195.492 48.4764C196.258 48.4764 196.642 48.3846 196.642 47.9256C196.642 47.7419 196.354 47.6501 196.067 47.6501C195.683 47.6501 194.725 47.5583 193.575 47.3747C192.617 47.1911 191.85 46.3648 191.85 45.4467C191.85 44.3449 191.85 43.2432 191.946 42.2333L194.533 12.9454H194.821C195.587 14.6898 202.87 29.7469 203.541 30.9404C203.829 31.5831 209.483 42.5087 211.208 45.5385C212.453 47.8338 212.741 48.4764 213.22 48.4764C213.795 48.4764 213.987 47.9256 215.424 45.1712L231.523 12.3945H231.715L234.877 44.8958C234.973 45.9975 234.973 47.0993 234.59 47.1911C234.302 47.2829 234.111 47.3747 234.111 47.6501C234.111 47.9256 234.398 48.201 235.932 48.2928C238.327 48.4764 245.514 48.6601 246.952 48.6601C247.719 48.6601 248.293 48.4764 248.293 48.1092C248.293 47.8337 248.102 47.8338 247.814 47.8338C247.144 47.8338 245.419 47.8337 243.502 47.2829C240.627 46.3648 240.244 42.8759 239.956 40.5806L235.644 1.74441Z" fill="#2B2C30"/>
<path fill-rule="evenodd" clip-rule="evenodd" d="M257.685 32.8685C257.685 38.0099 257.685 42.3251 257.397 44.6204C257.206 46.1812 256.918 47.3747 255.768 47.5583C255.289 47.6501 254.618 47.7419 254.043 47.7419C253.66 47.7419 253.564 47.9256 253.564 48.1092C253.564 48.4764 253.852 48.5682 254.427 48.5682C255.289 48.5682 256.535 48.4764 257.685 48.4764C258.835 48.4764 259.793 48.3846 259.985 48.3846C261.614 48.3846 265.351 48.7519 273.88 48.7519C276.084 48.7519 276.563 48.7519 276.946 47.3747C277.234 46.273 277.713 42.6005 277.713 42.1414C277.713 41.7742 277.713 41.3151 277.33 41.3151C277.042 41.3151 276.946 41.4988 276.851 42.1414C276.467 44.3449 275.796 45.4467 274.359 45.9975C272.922 46.5484 270.43 46.5484 268.993 46.5484C263.434 46.5484 262.668 45.8139 262.476 42.1414C262.38 41.0397 262.476 34.7047 262.476 32.8685V28.0943C262.476 27.9107 262.572 27.727 262.86 27.727C263.818 27.727 269.376 27.8189 270.909 28.0025C273.113 28.1861 273.592 29.1042 273.88 29.9305C274.072 30.665 274.072 31.2159 274.072 31.6749C274.072 31.9504 274.167 32.134 274.455 32.134C274.838 32.134 274.838 31.5831 274.838 31.1241C274.838 30.7568 274.934 28.737 275.03 27.6352C275.221 25.8908 275.509 24.9727 275.509 24.6055C275.509 24.2382 275.413 24.1464 275.221 24.1464C275.03 24.1464 274.742 24.4218 274.359 24.8809C273.88 25.4318 273.017 25.5236 271.676 25.6154C270.334 25.7072 263.434 25.7072 262.668 25.7072C262.38 25.7072 262.285 25.5236 262.285 25.1563V10.2829C262.285 9.91563 262.38 9.73202 262.668 9.73202C263.243 9.73202 269.472 9.82383 270.43 9.91564C273.497 10.2829 274.072 10.9256 274.455 11.7519C274.742 12.3945 274.838 13.3127 274.838 13.6799C274.838 14.139 274.934 14.4144 275.317 14.4144C275.509 14.4144 275.701 14.0472 275.701 13.8635C275.796 13.2209 275.892 10.8337 275.988 10.2829C276.18 8.81389 276.467 8.0794 276.467 7.71215C276.467 7.43672 276.371 7.2531 276.276 7.2531C275.988 7.2531 275.796 7.43672 275.509 7.52853C275.03 7.62035 274.167 7.71216 273.113 7.80397C271.772 7.89578 260.56 7.89579 260.176 7.89579C259.889 7.89579 256.343 7.71215 253.756 7.71215C253.181 7.71215 252.893 7.80397 252.893 8.17121C252.893 8.35483 253.085 8.53847 253.372 8.53847C253.852 8.53847 254.81 8.63027 255.289 8.72209C257.11 9.08933 257.589 10.0074 257.685 11.8437C257.781 13.5881 257.781 15.0571 257.781 23.5037V32.8685H257.685Z" fill="#2B2C30"/>
<path fill-rule="evenodd" clip-rule="evenodd" d="M295.825 23.3201C295.825 14.8734 295.825 13.4045 295.921 11.66C296.016 9.73201 296.496 8.8139 298.125 8.53847C298.795 8.44665 299.562 8.35485 299.945 8.35485C300.137 8.35485 300.425 8.26303 300.425 7.98759C300.425 7.62035 300.137 7.52853 299.562 7.52853C297.837 7.52853 293.717 7.71215 293.429 7.71215C293.142 7.71215 289.596 7.52853 287.104 7.52853C286.529 7.52853 286.242 7.62035 286.242 7.98759C286.242 8.17121 286.434 8.35485 286.721 8.35485C287.2 8.35485 288.158 8.44665 288.638 8.53847C290.458 8.90571 290.937 9.82382 291.033 11.66C291.129 13.4045 291.129 14.8734 291.129 23.3201V32.8685C291.129 38.0099 291.129 42.3251 290.842 44.6204C290.65 46.1811 290.363 47.3747 289.213 47.5583C288.733 47.6501 288.063 47.7419 287.488 47.7419C287.104 47.7419 287.008 47.9256 287.008 48.1092C287.008 48.4764 287.296 48.5682 287.871 48.5682C288.733 48.5682 289.979 48.4764 291.129 48.4764C292.279 48.4764 293.237 48.3846 293.429 48.3846C296.687 48.3846 300.425 48.7519 308.57 48.7519C311.541 48.7519 311.732 48.5682 312.116 47.2829C312.595 45.7221 312.978 42.5087 312.978 41.866C312.978 41.2233 312.882 41.0397 312.595 41.0397C312.212 41.0397 312.116 41.3151 312.116 41.7742C311.924 42.7841 311.349 44.1613 310.678 44.9876C309.337 46.5484 306.845 46.6402 303.874 46.6402C299.466 46.6402 298.029 46.2729 297.071 45.3548C296.016 44.3449 295.825 40.9479 295.825 32.9603V23.3201Z" fill="#2B2C30"/>
<path fill-rule="evenodd" clip-rule="evenodd" d="M328.79 23.3201C328.79 14.8734 328.79 13.4045 328.886 11.66C328.982 9.73201 329.461 8.8139 330.994 8.53847C331.665 8.44665 332.048 8.35485 332.431 8.35485C332.623 8.35485 332.911 8.26303 332.911 7.98759C332.911 7.62035 332.623 7.52853 332.048 7.52853C330.323 7.52853 326.778 7.71215 326.49 7.71215C326.203 7.71215 322.657 7.52853 320.836 7.52853C320.261 7.52853 319.974 7.62035 319.974 7.98759C319.974 8.17121 320.165 8.35485 320.453 8.35485C320.836 8.35485 321.603 8.44665 322.178 8.53847C323.424 8.8139 323.999 9.73202 324.094 11.5682C324.19 13.3127 324.19 14.7816 324.19 23.2283V32.7767C324.19 37.9181 324.19 42.2333 323.903 44.5285C323.711 46.0893 323.424 47.2829 322.274 47.4665C321.794 47.5583 321.124 47.6501 320.549 47.6501C320.165 47.6501 320.07 47.8338 320.07 48.0174C320.07 48.3846 320.357 48.4764 320.932 48.4764C322.657 48.4764 326.203 48.2928 326.49 48.2928C326.778 48.2928 330.323 48.4764 333.39 48.4764C333.965 48.4764 334.252 48.2928 334.252 48.0174C334.252 47.8338 334.156 47.6501 333.773 47.6501C333.294 47.6501 332.048 47.5583 331.282 47.4665C329.557 47.2829 329.269 46.0893 329.077 44.5285C328.79 42.2333 328.79 38.0099 328.79 32.7767V23.3201Z" fill="#2B2C30"/>
<path fill-rule="evenodd" clip-rule="evenodd" d="M349.297 15.2407C351.118 17.1687 357.443 23.9628 364.055 30.7568C369.997 36.9082 378.142 44.8958 378.813 45.3548C381.784 48.201 382.454 48.8437 382.934 48.8437C383.317 48.8437 383.413 48.5682 383.413 44.9876L383.508 13.3127C383.508 10.0993 383.7 8.90571 385.617 8.53846C386.288 8.35484 386.671 8.35484 386.958 8.35484C387.342 8.35484 387.533 8.17121 387.533 7.98759C387.533 7.62034 387.15 7.62035 386.479 7.62035C384.179 7.62035 382.263 7.80397 381.688 7.80397C381.113 7.80397 378.334 7.62035 375.842 7.62035C375.171 7.62035 374.692 7.71216 374.692 7.98759C374.692 8.17121 374.788 8.35484 375.171 8.35484C375.651 8.35484 376.896 8.44664 377.95 8.63027C379.675 9.08932 380.059 10.2829 380.154 13.7717L380.729 41.2233C378.909 39.4789 372.776 32.8685 367.217 27.0844C358.497 18.1787 350.16 9.45658 349.297 8.53846C348.723 7.9876 347.764 6.79404 347.285 6.79404C346.806 6.79404 346.71 7.34492 346.71 9.45658L346.614 40.397C346.614 45.3548 346.327 46.9156 344.889 47.2829C344.027 47.5583 343.069 47.6501 342.589 47.6501C342.302 47.6501 342.11 47.7419 342.11 48.0174C342.11 48.3846 342.494 48.4764 342.973 48.4764C345.464 48.4764 347.86 48.2928 348.339 48.2928C348.818 48.2928 351.118 48.4764 354.281 48.4764C354.951 48.4764 355.335 48.3846 355.335 48.0174C355.335 47.8338 355.143 47.6501 354.856 47.6501C354.376 47.6501 353.131 47.5583 352.076 47.2829C350.543 46.8238 349.968 45.4466 349.872 41.0397L349.297 15.2407Z" fill="#2B2C30"/>
<path fill-rule="evenodd" clip-rule="evenodd" d="M399.512 32.8685C399.512 38.0099 399.512 42.3251 399.224 44.6204C399.033 46.1812 398.745 47.3747 397.595 47.5583C397.116 47.6501 396.445 47.7419 395.87 47.7419C395.487 47.7419 395.391 47.9256 395.391 48.1092C395.391 48.4764 395.679 48.5682 396.254 48.5682C397.979 48.5682 401.524 48.3846 401.812 48.3846C402.387 48.3846 409.478 49.0273 414.365 49.0273C423.948 49.0273 429.027 45.263 431.423 42.7841C434.585 39.5707 437.556 34.3375 437.556 27.5434C437.556 21.1166 434.873 16.6179 432.094 13.8635C425.386 7.25311 415.036 7.71216 409.478 7.71216C406.124 7.71216 402.578 7.89579 401.908 7.89579C401.62 7.89579 398.074 7.71216 395.487 7.71216C394.912 7.71216 394.625 7.80397 394.625 8.17121C394.625 8.35484 394.816 8.53847 395.104 8.53847C395.583 8.53847 396.541 8.63028 397.02 8.72209C398.841 9.08933 399.32 10.0074 399.416 11.8437C399.512 13.5881 399.512 15.0571 399.512 23.5037V32.8685ZM404.208 22.4938C404.208 18.3623 404.208 12.8536 404.303 11.0174C404.303 10.4665 404.495 10.1911 404.974 9.91564C405.453 9.73202 407.466 9.54838 408.616 9.54838C415.324 9.54838 421.744 10.2829 427.015 15.6079C429.315 17.9032 432.381 22.402 432.381 29.196C432.381 34.1539 430.848 39.3871 427.877 42.1414C424.523 45.3548 419.732 47.1911 414.461 47.1911C407.849 47.1911 405.645 46.0893 404.878 44.9876C404.399 44.4367 404.303 42.2333 404.303 40.8561C404.208 39.8462 404.208 34.8883 404.208 29.1042V22.4938Z" fill="#2B2C30"/>
<path fill-rule="evenodd" clip-rule="evenodd" d="M444.264 42.6005C443.21 45.263 442.156 47.3747 439.569 47.6501C439.089 47.7419 438.323 47.7419 437.94 47.7419C437.652 47.7419 437.46 47.8337 437.46 48.1092C437.46 48.4764 437.844 48.5682 438.514 48.5682C441.198 48.5682 444.264 48.3846 444.839 48.3846C445.414 48.3846 447.906 48.5682 449.247 48.5682C449.726 48.5682 450.11 48.4764 450.11 48.1092C450.11 47.9256 449.918 47.7419 449.535 47.7419H448.96C448.002 47.7419 446.852 47.2829 446.852 46.1811C446.852 45.1712 447.139 43.8859 447.618 42.6005L450.972 33.0521C451.068 32.7767 451.26 32.5931 451.547 32.5931H463.622C463.909 32.5931 464.005 32.6849 464.101 32.9603L469.371 46.2729C469.755 47.0992 469.371 47.6501 468.988 47.7419C468.796 47.8337 468.605 47.9256 468.605 48.1092C468.605 48.4764 469.18 48.4764 470.33 48.4764C474.259 48.5682 478.379 48.5682 479.146 48.5682C479.721 48.5682 480.296 48.4764 480.296 48.1092C480.296 47.8337 480.104 47.7419 479.721 47.7419C479.146 47.7419 478.284 47.6501 477.421 47.3747C476.271 47.0074 474.642 46.1811 472.534 41.407C469.084 33.2357 460.268 10.9256 459.405 8.8139C458.734 7.1613 458.543 6.88586 458.159 6.88586C457.776 6.88586 457.584 7.25311 456.914 8.99752L444.264 42.6005ZM452.122 30.665C451.931 30.665 451.835 30.5732 451.931 30.2978L456.914 15.6998C457.201 14.8735 457.489 14.8735 457.776 15.6998L463.143 30.2978C463.238 30.4814 463.238 30.665 462.951 30.665H452.122Z" fill="#2B2C30"/>
</svg>
