<svg width="36" height="41" viewBox="0 0 36 41" fill="none" xmlns="http://www.w3.org/2000/svg">
<path d="M2.28931 14.7261C4.56742 12.6902 7.03631 12.71 9.71 13.3066L28.3922 17.4519C32.3116 18.2888 33.2879 15.8232 33.2879 15.8232C35.8774 18.7639 36.0654 23.5368 32.9737 26.3022C30.6956 28.3381 28.2267 28.3183 25.553 27.7217L6.87078 23.5764C2.95142 22.7394 1.97509 25.2051 1.97509 25.2051C-0.614442 22.2644 -0.802414 17.4915 2.28931 14.7261Z" fill="#2B2C30"/>
<path d="M17.5206 1.75028V10.7844C17.515 11.398 17.9386 11.9296 18.5334 12.0625L28.869 14.3641C30.0951 14.6384 30.9536 13.1681 30.1203 12.2208L20.0624 0.777587C19.1758 -0.231862 17.5206 0.401518 17.5206 1.74745V1.75028Z" fill="#2B2C30"/>
<path d="M17.7253 39.261V30.2269C17.731 29.6133 17.3073 29.0817 16.7125 28.9488L6.37687 26.6472C5.15084 26.3729 4.29234 27.8432 5.12559 28.7905L15.1835 40.2309C16.0701 41.2403 17.7253 40.607 17.7253 39.261Z" fill="#2B2C30"/>
</svg>
